<?xml version="1.0" encoding="utf-8"?>
<!-- Generator: Adobe Illustrator 15.0.0, SVG Export Plug-In  -->
<!DOCTYPE svg PUBLIC "-//W3C//DTD SVG 1.1//EN" "http://www.w3.org/Graphics/SVG/1.1/DTD/svg11.dtd" [
	<!ENTITY ns_flows "http://ns.adobe.com/Flows/1.0/">
]>
<svg version="1.1"
	 xmlns="http://www.w3.org/2000/svg" xmlns:xlink="http://www.w3.org/1999/xlink" xmlns:a="http://ns.adobe.com/AdobeSVGViewerExtensions/3.0/"
	 x="0px" y="0px" width="400px" height="400px" viewBox="0 0 400 400" overflow="visible" enable-background="new 0 0 400 400"
	 xml:space="preserve">
<defs>
</defs>
<rect display="none" fill="#4C3B3B" width="407" height="411"/>
<polyline display="none" fill="none" stroke="#FFFFFF" stroke-width="8" stroke-miterlimit="10" points="35.088,8.943 5.922,38.109 
	35.922,68.109 "/>
<polyline display="none" fill="none" stroke="#FFFFFF" stroke-width="8" stroke-miterlimit="10" points="68.691,68.109 
	97.857,38.943 67.857,8.943 "/>
<polyline display="none" fill="none" stroke="#FFFFFF" stroke-width="4" stroke-miterlimit="10" points="273.941,97.151 
	258.383,112.71 274.387,128.715 "/>
<polyline display="none" fill="none" stroke="#FFFFFF" stroke-width="4" stroke-miterlimit="10" points="302.086,128.715 
	317.646,113.155 301.642,97.151 "/>
<line display="none" fill="none" stroke="#FFFFFF" stroke-width="5" stroke-miterlimit="10" x1="154.363" y1="7.948" x2="134.863" y2="27.448"/>
<line display="none" fill="none" stroke="#0F489C" stroke-width="5" stroke-miterlimit="10" x1="291.381" y1="7.667" x2="279.751" y2="19.298"/>
<line display="none" opacity="0.2" fill="none" stroke="#000000" stroke-miterlimit="10" enable-background="new    " x1="336.383" y1="7.948" x2="316.747" y2="27.583"/>
<circle display="none" fill="#FFFFFF" cx="173.5" cy="18.01" r="3.01"/>
<circle display="none" fill="#999999" cx="259.041" cy="13.482" r="2.802"/>
<path display="none" fill="#7F7F7F" d="M208.917,21.384c0,0.793-0.645,1.438-1.438,1.438l0,0c-0.795,0-1.438-0.645-1.438-1.438
	V12.48c0-0.794,0.644-1.438,1.438-1.438l0,0c0.793,0,1.438,0.644,1.438,1.438V21.384z"/>
<path display="none" fill="#7F7F7F" d="M202.875,21.384c0,0.793-0.645,1.438-1.438,1.438l0,0c-0.795,0-1.438-0.645-1.438-1.438
	V12.48c0-0.794,0.644-1.438,1.438-1.438l0,0c0.793,0,1.438,0.644,1.438,1.438V21.384z"/>
<path display="none" fill="#FFFFFF" d="M234,21.384c0,0.793-0.645,1.438-1.438,1.438l0,0c-0.795,0-1.438-0.645-1.438-1.438V12.48
	c0-0.794,0.644-1.438,1.438-1.438l0,0c0.793,0,1.438,0.644,1.438,1.438V21.384z"/>
<path display="none" fill="#FFFFFF" d="M227.958,21.384c0,0.793-0.645,1.438-1.438,1.438l0,0c-0.795,0-1.438-0.645-1.438-1.438
	V12.48c0-0.794,0.644-1.438,1.438-1.438l0,0c0.793,0,1.438,0.644,1.438,1.438V21.384z"/>
<line display="none" fill="none" stroke="#FFFFFF" stroke-miterlimit="10" x1="358.084" y1="14.5" x2="374.834" y2="14.5"/>
<line display="none" fill="none" stroke="#FFFFFF" stroke-miterlimit="10" x1="366.459" y1="6.125" x2="366.459" y2="22.875"/>
<circle display="none" fill="none" stroke="#FFFFFF" stroke-width="5" stroke-miterlimit="10" cx="50.334" cy="106.709" r="9.292"/>
<line display="none" fill="none" stroke="#FFFFFF" stroke-width="5" stroke-miterlimit="10" x1="64.5" y1="120.583" x2="57.046" y2="113.128"/>
<circle display="none" fill="none" stroke="#0F489C" stroke-width="2" stroke-miterlimit="10" cx="14.331" cy="104.758" r="3.241"/>
<polyline display="none" fill="none" stroke="#0F489C" stroke-width="2" stroke-miterlimit="10" points="10.524,122.691 
	10.524,115.893 10.524,121.39 "/>
<path display="none" fill="none" stroke="#0F489C" stroke-width="2" stroke-miterlimit="10" d="M21.801,121.39v-8.88
	c0-1.167-0.946-2.114-2.114-2.114H8.975c-1.168,0-2.114,0.947-2.114,2.114v8.88"/>
<polyline display="none" fill="none" stroke="#0F489C" stroke-width="2" stroke-miterlimit="10" points="18.137,122.691 
	18.137,115.893 18.137,121.39 "/>
<path display="none" fill="none" stroke="#0F489C" stroke-width="2" stroke-miterlimit="10" d="M14.331,123.341
	c-7.307,0-13.229-5.923-13.229-13.229c0-7.305,5.923-13.229,13.229-13.229c7.306,0,13.229,5.923,13.229,13.229
	C27.56,117.418,21.637,123.341,14.331,123.341"/>
<circle display="none" fill="#00549E" cx="145.119" cy="111.292" r="15.312"/>
<path display="none" fill="#FFFFFF" d="M146.425,119.779h-3.51v-8.487h-1.756v-2.925h1.756v-1.756c0-2.386,0.988-3.806,3.803-3.806
	h2.344v2.926h-1.463c-1.097,0-1.169,0.409-1.169,1.171l-0.004,1.465h2.654l-0.312,2.925h-2.343L146.425,119.779L146.425,119.779z"/>
<circle display="none" fill="#E22A00" cx="188.41" cy="111.365" r="15.24"/>
<path id="YouTube__x28_alt_x29__2_" display="none" fill="#FFFFFF" d="M195.022,108.713c0-1.093-0.885-1.977-1.977-1.977h-9.273
	c-1.092,0-1.977,0.884-1.977,1.977v5.303c0,1.093,0.885,1.978,1.977,1.978h9.273c1.091,0,1.977-0.885,1.977-1.978V108.713z
	 M187.087,113.602v-4.98l3.776,2.491L187.087,113.602z"/>
<line display="none" fill="none" stroke="#3E3E3E" stroke-width="2" stroke-miterlimit="10" x1="354.021" y1="104.083" x2="355.938" y2="104.083"/>
<line display="none" fill="none" stroke="#3E3E3E" stroke-width="2" stroke-miterlimit="10" x1="359.021" y1="104.083" x2="369.979" y2="104.083"/>
<line display="none" fill="none" stroke="#3E3E3E" stroke-width="2" stroke-miterlimit="10" x1="354.021" y1="108.938" x2="355.938" y2="108.938"/>
<line display="none" fill="none" stroke="#3E3E3E" stroke-width="2" stroke-miterlimit="10" x1="359.021" y1="108.938" x2="369.979" y2="108.938"/>
<line display="none" fill="none" stroke="#3E3E3E" stroke-width="2" stroke-miterlimit="10" x1="354.021" y1="114.041" x2="355.938" y2="114.041"/>
<line display="none" fill="none" stroke="#3E3E3E" stroke-width="2" stroke-miterlimit="10" x1="359.021" y1="114.041" x2="369.979" y2="114.041"/>
<circle display="none" fill="none" stroke="#7E7E7E" stroke-width="2" stroke-miterlimit="10" cx="363.416" cy="109.042" r="15.959"/>
<text transform="matrix(1 0 0 1 65.249 191.5332)" display="none" fill="#2A73DD" enable-background="new    " font-family="'KoreaDokdo'" font-size="49.783" letter-spacing="-1">눈나라</text>
<text transform="matrix(1 0 0 1 140.3198 191.5332)" display="none" fill="#0F489C" enable-background="new    " font-family="'KoreaDokdo'" font-size="49.783" letter-spacing="-1">얼음나라</text>
<text transform="matrix(1 0 0 1 1.1216 178.75)" display="none" fill="#0F489C" enable-background="new    " font-family="'Dinbla'" font-size="12">WEBZINE</text>
<path display="none" fill="none" stroke="#0F489C" stroke-width="2" stroke-miterlimit="10" d="M26.326,181.938v7.812
	c0,0-6.886-3.212-15.013-3.212v-4.879"/>
<path display="none" fill="none" stroke="#0F489C" stroke-width="2" stroke-miterlimit="10" d="M11.313,168.194v-9.945
	c0,0,6.469-0.988,15.013,3.335v6.728"/>
<path display="none" fill="none" stroke="#0F489C" stroke-width="2" stroke-miterlimit="10" d="M26.323,189.75
	c0,0,6.77-3.212,14.76-3.212v-4.879"/>
<path display="none" fill="none" stroke="#0F489C" stroke-width="2" stroke-miterlimit="10" d="M41.595,168.194v-9.945
	c0,0-6.468-0.988-15.012,3.335"/>
<path display="none" fill="none" stroke="#0F489C" stroke-width="2" stroke-miterlimit="10" d="M45.625,168.313v-4.563
	c0-0.552-0.448-1-1-1h-2.812"/>
<path display="none" fill="none" stroke="#0F489C" stroke-width="2" stroke-miterlimit="10" d="M6.999,181.938v9.312
	c0,0.552,0.447,1,1,1H22.67c0.619,1.364,1.984,2.316,3.58,2.316c1.595,0,2.961-0.953,3.58-2.316h14.795c0.552,0,1-0.448,1-1v-9.312"
	/>
<path display="none" fill="none" stroke="#0F489C" stroke-width="2" stroke-miterlimit="10" d="M11.313,162.75H7.999
	c-0.553,0-1,0.448-1,1v4.563"/>
<path display="none" fill="#999999" d="M215.567,105.312c0,3.222,2.608,5.831,5.83,5.831c3.223,0,5.831-2.609,5.831-5.831
	c0-3.221-2.608-5.831-5.831-5.831C218.176,99.481,215.567,102.09,215.567,105.312z M216.783,105.312
	c0-0.374,0.043-0.738,0.128-1.085l1.086,1.085l-0.242,1.458l0.971,0.972v1.334C217.551,108.239,216.783,106.864,216.783,105.312z
	 M220.337,100.82c0.34-0.083,0.695-0.124,1.062-0.124c0.406,0,0.801,0.054,1.174,0.151l-0.201,0.335l0.242,0.243h0.729l0.201-0.201
	c0.17,0.09,0.33,0.187,0.484,0.296l-0.443,0.148l-0.486,0.486l0.486,0.243v0.243h-0.486v0.485c0,0,0.336,0.243,0.729,0.243
	c0.387,0,0.214-0.532,0.485-0.729c0.274-0.197,0.606-0.153,0.606-0.153l0.159,0.041c0.296,0.392,0.53,0.829,0.69,1.302v0.024
	c0,0-0.342-0.243-0.972-0.243c-0.629,0-1.215,0.243-1.215,0.243s-0.686,0.2-0.729,0.729c-0.075,0.911,0.242,1.215,0.242,1.215
	l1.216,0.729v2.364c-0.794,0.648-1.811,1.037-2.916,1.037c-0.521,0-1.021-0.085-1.492-0.245l1.25-2.913l-0.243-1.215
	c0,0-0.965-1.215-1.457-1.215s-0.729,0.729-0.729,0.729l-0.485-0.972l1.458-0.972l0.729-1.943L220.337,100.82z"/>
<polygon fill="#FFFFFF" points="33.093,65.04 0.265,32.211 32.26,0.216 37.917,5.873 11.579,32.211 38.75,59.383 "/>
<polygon fill="#FFFFFF" points="71.521,65.04 65.862,59.383 92.202,33.045 65.029,5.873 70.687,0.216 103.515,33.045 "/>
<polygon fill="#FFFFFF" points="272.973,124.231 255.555,106.812 272.527,89.839 275.355,92.667 261.211,106.812 275.801,121.403 
	"/>
<polygon fill="#FFFFFF" points="303.5,124.231 300.672,121.403 314.816,107.257 300.228,92.667 303.056,89.839 320.474,107.257 "/>
<rect x="142.114" y="-1.989" transform="matrix(-0.7072 -0.7071 0.7071 -0.7072 238.5346 122.3932)" fill="#FFFFFF" width="4.999" height="27.578"/>
<rect x="283.065" y="-0.641" transform="matrix(-0.7071 -0.7072 0.7072 -0.7071 482.1124 214.8816)" fill="#0F489C" width="4.998" height="16.446"/>
<rect x="326.063" y="-2.019" transform="matrix(-0.7071 -0.7071 0.7071 -0.7071 549.0874 251.1689)" opacity="0.2" enable-background="new    " width="1" height="27.768"/>
<circle fill="#FFFFFF" cx="173.5" cy="12.112" r="3.01"/>
<circle fill="#999999" cx="259.041" cy="7.584" r="2.802"/>
<path fill="#7F7F7F" d="M208.917,15.486c0,0.793-0.645,1.438-1.438,1.438l0,0c-0.795,0-1.438-0.645-1.438-1.438V6.582
	c0-0.794,0.644-1.438,1.438-1.438l0,0c0.793,0,1.438,0.644,1.438,1.438V15.486z"/>
<path fill="#7F7F7F" d="M202.875,15.486c0,0.793-0.645,1.438-1.438,1.438l0,0c-0.795,0-1.438-0.645-1.438-1.438V6.582
	c0-0.794,0.644-1.438,1.438-1.438l0,0c0.793,0,1.438,0.644,1.438,1.438V15.486z"/>
<path fill="#FFFFFF" d="M234,15.486c0,0.793-0.645,1.438-1.438,1.438l0,0c-0.795,0-1.438-0.645-1.438-1.438V6.582
	c0-0.794,0.644-1.438,1.438-1.438l0,0c0.793,0,1.438,0.644,1.438,1.438V15.486z"/>
<path fill="#FFFFFF" d="M227.958,15.486c0,0.793-0.645,1.438-1.438,1.438l0,0c-0.795,0-1.438-0.645-1.438-1.438V6.582
	c0-0.794,0.644-1.438,1.438-1.438l0,0c0.793,0,1.438,0.644,1.438,1.438V15.486z"/>
<rect x="358.084" y="8.102" fill="#6D6D6D" width="16.75" height="1"/>
<rect x="365.959" y="0.227" fill="#6D6D6D" width="1" height="16.75"/>
<path fill="#0F489C" d="M50.334,112.602c-6.502,0-11.792-5.29-11.792-11.792s5.29-11.792,11.792-11.792s11.792,5.29,11.792,11.792
	S56.836,112.602,50.334,112.602z M50.334,94.019c-3.745,0-6.792,3.047-6.792,6.792s3.047,6.792,6.792,6.792s6.792-3.047,6.792-6.792
	C57.125,97.066,54.079,94.019,50.334,94.019z"/>
<rect x="55.503" y="108.457" transform="matrix(-0.7071 -0.7071 0.7071 -0.7071 25.2893 232.3887)" fill="#0F489C" width="10.542" height="4.999"/>
<path fill="#0F489C" d="M14.331,103.082c-2.328,0-4.223-1.894-4.223-4.222c0-2.327,1.895-4.221,4.223-4.221s4.221,1.894,4.221,4.221
	C18.552,101.188,16.659,103.082,14.331,103.082z M14.331,96.599c-1.247,0-2.263,1.014-2.263,2.261c0,1.248,1.016,2.263,2.263,2.263
	s2.261-1.015,2.261-2.263C16.592,97.613,15.578,96.599,14.331,96.599z"/>
<rect x="9.545" y="109.995" fill="#0F489C" width="1.959" height="6.799"/>
<path fill="#0F489C" d="M22.78,115.492h-1.959v-8.88c0-0.625-0.509-1.134-1.135-1.134H8.975c-0.625,0-1.135,0.509-1.135,1.134v8.88
	H5.881v-8.88c0-1.706,1.388-3.093,3.094-3.093h10.711c1.707,0,3.094,1.387,3.094,3.093L22.78,115.492L22.78,115.492z"/>
<rect x="17.157" y="109.995" fill="#0F489C" width="1.959" height="6.799"/>
<path fill="#0F489C" d="M14.331,118.423c-7.835,0-14.209-6.374-14.209-14.209c0-7.834,6.374-14.208,14.209-14.208
	c7.834,0,14.208,6.374,14.208,14.208C28.54,112.049,22.166,118.423,14.331,118.423z M14.331,91.965
	c-6.754,0-12.249,5.495-12.249,12.249c0,6.754,5.495,12.249,12.249,12.249c6.753,0,12.249-5.495,12.249-12.249
	C26.58,97.46,21.084,91.965,14.331,91.965z"/>
<circle fill="#00549E" cx="145.119" cy="105.394" r="15.312"/>
<path fill="#FFFFFF" d="M146.425,113.881h-3.51v-8.487h-1.756v-2.925h1.756v-1.756c0-2.386,0.988-3.806,3.803-3.806h2.344v2.926
	h-1.463c-1.097,0-1.169,0.409-1.169,1.171l-0.004,1.465h2.654l-0.312,2.925h-2.343L146.425,113.881L146.425,113.881z"/>
<circle fill="#E22A00" cx="188.41" cy="105.467" r="15.24"/>
<path id="YouTube__x28_alt_x29__1_" fill="#FFFFFF" d="M195.022,102.815c0-1.093-0.885-1.977-1.977-1.977h-9.273
	c-1.092,0-1.977,0.884-1.977,1.977v5.303c0,1.093,0.885,1.978,1.977,1.978h9.273c1.091,0,1.977-0.885,1.977-1.978V102.815z
	 M187.087,107.704v-4.98l3.776,2.491L187.087,107.704z"/>
<rect x="354.021" y="97.185" fill="#3E3E3E" width="1.917" height="2"/>
<rect x="359.021" y="97.185" fill="#3E3E3E" width="10.958" height="2"/>
<rect x="354.021" y="102.04" fill="#3E3E3E" width="1.917" height="2"/>
<rect x="359.021" y="102.04" fill="#3E3E3E" width="10.958" height="2"/>
<rect x="354.021" y="107.143" fill="#3E3E3E" width="1.917" height="2"/>
<rect x="359.021" y="107.143" fill="#3E3E3E" width="10.958" height="2"/>
<path fill="#7E7E7E" d="M363.416,120.103c-9.352,0-16.959-7.608-16.959-16.959s7.607-16.959,16.959-16.959
	c9.353,0,16.959,7.608,16.959,16.959C380.376,112.496,372.769,120.103,363.416,120.103z M363.416,88.185
	c-8.247,0-14.959,6.71-14.959,14.959s6.712,14.959,14.959,14.959c8.248,0,14.959-6.711,14.959-14.959S371.664,88.185,363.416,88.185
	z"/>
<path fill="#2A73DD" d="M79.786,182.051c-0.199,0-0.383,0.034-0.548,0.1c-0.167,0.067-0.365,0.117-0.598,0.149l-0.498-0.946
	l-0.448,0.249l-0.249-0.249c-0.133,0-0.397-0.083-0.796-0.249c-0.397-0.166-0.598-0.315-0.598-0.448
	c-0.067-0.231-0.117-0.448-0.149-0.647c-0.033-0.166-0.059-0.34-0.074-0.523c-0.018-0.182-0.025-0.34-0.025-0.473v-1.394
	c0-0.132,0.041-0.332,0.124-0.597c0.083-0.266,0.125-0.464,0.125-0.598v-0.647l0.249-0.498v-0.448l-0.498,0.199
	c0.132-0.099,0.281-0.249,0.448-0.448c0.166-0.199,0.249-0.349,0.249-0.448v-0.249l0.1-0.498c0.033-0.132,0.066-0.265,0.101-0.398
	c0.032-0.132,0.05-0.231,0.05-0.298c0-0.066,0.016-0.182,0.05-0.349c0.033-0.166,0.083-0.265,0.149-0.299l-0.199-0.249v-0.249
	l0.249-0.697v-0.447l0.199-0.448v-0.946l-0.697,0.249h-0.697l-0.448,0.249l-0.249,0.199H74.41l-0.498,0.249
	c-0.101,0-0.323,0.042-0.672,0.125c-0.35,0.083-0.591,0.125-0.723,0.125l-1.194,0.199h-0.199c-0.101,0-0.249-0.033-0.448-0.1
	c-0.1-0.033-0.183-0.066-0.249-0.1l-0.249-0.249l-0.498-0.249l-0.199-0.199l-0.498-0.249l-0.198-0.249l-0.498-0.697l-0.946-0.448
	c-0.067-0.132-0.117-0.265-0.149-0.397c-0.066-0.265-0.1-0.448-0.1-0.547v-0.249l0.249-0.249l0.397-0.1
	c0.266-0.066,0.448-0.1,0.548-0.1h0.249c0.132,0,0.29,0.034,0.473,0.1c0.182,0.067,0.34,0.1,0.473,0.1l0.697,0.249h1.394l0.498-0.1
	c0.133-0.033,0.266-0.066,0.398-0.1c0.132-0.033,0.231-0.05,0.298-0.05l0.946-0.199c0.033,0,0.157-0.025,0.374-0.075
	c0.215-0.05,0.438-0.107,0.672-0.174c0.23-0.066,0.448-0.125,0.646-0.174c0.199-0.049,0.332-0.075,0.398-0.075
	c0.1,0,0.281-0.033,0.547-0.1l0.398-0.1l0.945-0.498c0.133,0,0.456-0.082,0.972-0.249c0.514-0.166,0.888-0.315,1.12-0.448
	c0.132-0.066,0.34-0.149,0.622-0.249c0.281-0.1,0.589-0.199,0.921-0.299c0.331-0.099,0.639-0.19,0.921-0.272
	c0.281-0.083,0.488-0.125,0.622-0.125l1.194-0.05l0.697-0.647c0.1,0,0.323-0.074,0.672-0.224c0.35-0.15,0.589-0.224,0.722-0.224
	h0.249l0.697,0.199h0.697l0.448,0.249l0.249,0.249h0.249l0.447,0.199c0.066,0.067,0.142,0.125,0.225,0.174
	c0.083,0.05,0.157,0.108,0.224,0.174c0.101,0.067,0.182,0.117,0.249,0.149v0.697l0.249,0.249v0.199l-0.249,0.249l-0.697,0.249
	c-0.066,0-0.174,0.034-0.323,0.1c-0.149,0.067-0.308,0.149-0.474,0.249c-0.167,0.1-0.332,0.183-0.498,0.249
	c-0.167,0.067-0.281,0.1-0.349,0.1H87.3l-0.448,0.249c-0.167,0.1-0.432,0.258-0.797,0.473c-0.365,0.216-0.739,0.432-1.12,0.647
	c-0.382,0.216-0.729,0.416-1.045,0.598c-0.314,0.183-0.506,0.307-0.572,0.373c-0.133,0.067-0.266,0.149-0.397,0.249
	c-0.267,0.199-0.448,0.349-0.547,0.448l-0.199,0.249v0.946c0,0.1-0.042,0.357-0.125,0.771c-0.083,0.416-0.125,0.689-0.125,0.821
	c0,0.133,0.042,0.249,0.125,0.349s0.125,0.216,0.125,0.349c0,0.1-0.042,0.282-0.125,0.547c-0.083,0.266-0.125,0.465-0.125,0.598
	v1.195c-0.067,0.199-0.117,0.365-0.149,0.498c-0.066,0.332-0.1,0.548-0.1,0.647l-0.249,0.199l0.249,0.747v0.199h-0.249v1.394
	l-0.199,0.498v0.946l-0.249,0.697c0,0.1,0.033,0.249,0.101,0.448c0.032,0.1,0.083,0.183,0.148,0.249v0.249l-1.194,0.448H79.786z
	 M70.477,181.902c0-0.066,0.025-0.199,0.075-0.398c0.05-0.199,0.1-0.415,0.149-0.647c0.05-0.231,0.1-0.448,0.148-0.647
	c0.049-0.199,0.075-0.332,0.075-0.398c0-0.132,0.083-0.373,0.249-0.722c0.166-0.349,0.249-0.573,0.249-0.672
	c0-0.199,0.148-0.448,0.448-0.747l0.447-0.199h1.195c0.199,0.233,0.39,0.473,0.572,0.722c0.182,0.249,0.355,0.506,0.522,0.771
	c0,0.1,0.017,0.158,0.051,0.174c0.032,0.017,0.05,0.075,0.05,0.174v0.946c0,0.067-0.067,0.249-0.199,0.547
	c-0.133,0.299-0.249,0.631-0.349,0.996c-0.067,0.266-0.108,0.531-0.125,0.797c-0.018,0.266-0.025,0.432-0.025,0.498
	c0,0.067-0.017,0.174-0.05,0.324c-0.033,0.149-0.067,0.307-0.101,0.473c-0.032,0.199-0.066,0.398-0.1,0.597l3.833-0.05l2.887-0.448
	l2.439,0.498c0.132,0,0.324,0.083,0.573,0.249c0.249,0.167,0.373,0.316,0.373,0.448v0.946c-0.199,0.032-0.365,0.082-0.498,0.149
	c-0.134,0.066-0.267,0.116-0.398,0.149c-0.133,0.033-0.232,0.083-0.299,0.149c-0.067,0-0.142,0.017-0.225,0.05
	c-0.083,0.033-0.157,0.066-0.224,0.1c-0.1,0.033-0.183,0.066-0.249,0.1c-0.1,0-0.299,0.016-0.597,0.05
	c-0.299,0.033-0.606,0.058-0.921,0.075c-0.315,0.016-0.622,0.041-0.921,0.075c-0.299,0.033-0.498,0.05-0.598,0.05h-4.033
	c-0.1,0-0.322-0.042-0.672-0.125c-0.349-0.083-0.59-0.125-0.722-0.125c-0.266-0.067-0.481-0.133-0.647-0.199
	c-0.167-0.067-0.315-0.125-0.447-0.174c-0.133-0.05-0.233-0.075-0.299-0.075c-0.199,0-0.433-0.083-0.697-0.249
	c-0.133-0.067-0.298-0.149-0.498-0.249l-0.448-0.448l-0.249-0.697v-1.892L70.477,181.902z M73.861,153.426
	c0.166-0.365,0.341-0.498,0.523-0.398c0.182,0.1,0.356,0.117,0.522,0.05c0.266,0.067,0.556,0.224,0.871,0.473s0.738,0.639,1.27,1.17
	c0,0.199-0.067,0.465-0.199,0.796c-0.133,0.332-0.199,0.681-0.199,1.045c0,0.033-0.017,0.167-0.05,0.398
	c-0.034,0.232-0.083,0.498-0.148,0.796c-0.067,0.299-0.149,0.605-0.249,0.921c-0.101,0.316-0.217,0.573-0.349,0.771l0.149,0.149
	c0.431-0.033,1.003-0.199,1.718-0.498c0.713-0.299,1.85-0.614,3.41-0.946c0.563,0,0.971,0,1.22,0s0.448,0.025,0.598,0.075
	c0.148,0.05,0.299,0.142,0.447,0.274c0.149,0.133,0.406,0.316,0.771,0.548c-0.067,0.067-0.133,0.117-0.199,0.149
	c-0.067,0.033-0.133,0.083-0.199,0.149c0,0.133,0.049,0.266,0.149,0.398c-0.133,0.067-0.216,0.142-0.249,0.224
	c-0.034,0.083-0.133,0.142-0.299,0.174l-0.149,0.249c0.132-0.032-0.009,0.05-0.423,0.249c-0.415,0.199-1.104,0.299-2.066,0.299
	c-0.066-0.033-0.307,0.042-0.722,0.224c-0.416,0.183-0.871,0.398-1.369,0.647s-0.979,0.481-1.444,0.697
	c-0.465,0.216-0.746,0.34-0.846,0.373c-0.167,0.133-0.332,0.233-0.498,0.299c-0.167,0.067-0.481,0.332-0.945,0.796
	c-0.365,0.034-0.622,0.025-0.771-0.025c-0.149-0.05-0.257-0.107-0.324-0.174c-0.066-0.066-0.117-0.141-0.148-0.224
	c-0.034-0.083-0.117-0.141-0.249-0.174v-0.398c-0.067,0-0.174,0.025-0.324,0.075s-0.257,0.075-0.324,0.075l-1.493-1.294
	c-0.066-0.199-0.024-0.34,0.125-0.423s0.142-0.157-0.024-0.224c-0.034-0.299,0.007-0.564,0.124-0.797
	c0.115-0.231,0.24-0.473,0.374-0.722c0.132-0.249,0.257-0.498,0.374-0.747c0.115-0.249,0.174-0.556,0.174-0.921
	c0-0.132,0.065-0.374,0.199-0.722c0.132-0.348,0.273-0.705,0.423-1.07c0.148-0.365,0.282-0.697,0.397-0.996
	c0.116-0.299,0.174-0.464,0.174-0.498c0.066-0.332,0.107-0.589,0.124-0.772C73.754,153.767,73.795,153.593,73.861,153.426z
	 M76.999,179.463v-1.792c-0.034,0.167-0.083,0.332-0.149,0.498c-0.066,0.167-0.1,0.282-0.1,0.348v0.498L76.999,179.463z
	 M76.999,175.978c-0.067-0.066-0.117-0.042-0.149,0.075c-0.034,0.116-0.05,0.249-0.05,0.398s0.016,0.282,0.05,0.398
	c0.033,0.117,0.083,0.142,0.149,0.075c0.099-0.132,0.148-0.299,0.148-0.498C77.147,176.227,77.098,176.078,76.999,175.978z
	 M77.196,174.833c-0.1,0-0.157,0.058-0.174,0.174c-0.018,0.117,0.007,0.241,0.074,0.374c-0.067,0.034-0.092,0.108-0.074,0.224
	c0.017,0.117,0.074,0.174,0.174,0.174c0.101,0,0.166-0.075,0.199-0.224c0.033-0.149,0-0.24-0.1-0.274
	c0.1-0.033,0.132-0.116,0.1-0.249C77.362,174.9,77.297,174.833,77.196,174.833z M77.146,173.887l0.05,0.249l-0.05,0.349l0.299-0.299
	v-0.697L77.146,173.887z M77.445,175.978c-0.133,0-0.198,0.033-0.198,0.1s0.065,0.099,0.198,0.099s0.199-0.032,0.199-0.099
	C77.646,176.011,77.579,175.978,77.445,175.978z M77.694,172.244c-0.133,0-0.198,0.075-0.198,0.224c0,0.149,0.065,0.224,0.198,0.224
	s0.199-0.075,0.199-0.224C77.894,172.319,77.828,172.244,77.694,172.244z M77.943,171.099c-0.133,0-0.198,0.075-0.198,0.224
	s0.065,0.224,0.198,0.224c0.101,0,0.149-0.075,0.149-0.224S78.044,171.099,77.943,171.099z"/>
<path fill="#2A73DD" d="M94.321,179.313l-0.299,0.1c-0.099,0.033-0.216,0.05-0.348,0.05c-0.1-0.132-0.208-0.224-0.324-0.274
	c-0.117-0.05-0.19-0.091-0.224-0.125l-0.547,0.498c-0.797-0.132-1.345-0.29-1.644-0.473c-0.299-0.182-0.48-0.356-0.547-0.523
	c-0.066-0.166-0.1-0.323-0.1-0.473c0-0.15-0.067-0.274-0.199-0.374l0.149-0.398c0,0.034,0,0.017,0-0.05
	c0-0.066-0.051-0.132-0.149-0.199c0.033-0.431,0.107-0.913,0.224-1.444c0.116-0.531,0.24-1.07,0.373-1.618
	c0.132-0.547,0.241-1.078,0.324-1.593c0.083-0.514,0.125-0.987,0.125-1.419c-0.067-0.332-0.067-0.664,0-0.996
	c0.066-0.332,0.149-0.688,0.249-1.07c0.1-0.381,0.19-0.771,0.274-1.17c0.082-0.398,0.124-0.829,0.124-1.294l0.148-0.1
	c0-0.331,0-0.589,0-0.771c0-0.182,0-0.332,0-0.448c0-0.116-0.017-0.215-0.05-0.298s-0.067-0.191-0.1-0.324
	c0.1-0.132,0.148-0.232,0.148-0.299c0-0.066,0-0.125,0-0.174c0-0.049,0.025-0.116,0.075-0.199c0.05-0.082,0.157-0.224,0.324-0.423
	c0.763,0.033,1.359,0.117,1.792,0.249c0.431,0.133,0.771,0.282,1.021,0.448c0.249,0.167,0.44,0.332,0.573,0.498
	c0.132,0.167,0.282,0.298,0.448,0.398c0,0.133-0.042,0.299-0.125,0.498s-0.092,0.299-0.025,0.299c0,0.067-0.017,0.241-0.05,0.522
	c-0.034,0.282-0.05,0.457-0.05,0.523c0.032,0.266,0.05,0.515,0.05,0.747c0,0.232,0.065,0.432,0.199,0.598
	c0,0.166-0.01,0.298-0.025,0.398c-0.017,0.1-0.067,0.208-0.148,0.324c-0.083,0.117-0.184,0.266-0.3,0.448
	c-0.116,0.183-0.273,0.457-0.473,0.822c-0.067-0.033-0.05,0.042,0.05,0.224c0.101,0.183,0.216,0.273,0.35,0.273
	c-0.101,0.167-0.199,0.258-0.3,0.274c-0.1,0.017-0.167,0.108-0.198,0.274h0.249c0,0.199-0.051,0.332-0.149,0.398l0.149,0.249
	c0.032,0.366,0.017,0.573-0.051,0.623c-0.066,0.05-0.1,0.158-0.1,0.323l0.149,0.149c0.1,0.167,0.083,0.357-0.051,0.573
	c-0.133,0.216-0.198,0.373-0.198,0.473l0.249,0.1l-0.249,0.398c0,0.1,0.008,0.174,0.024,0.224c0.018,0.05,0.042,0.108,0.075,0.174
	c0.033,0.099,0.033,0.241,0,0.423c-0.033,0.183-0.067,0.307-0.1,0.374c0.032,0.067,0.058,0.149,0.074,0.249
	c0.018,0.1,0.075,0.117,0.175,0.05c0.231,0,0.68-0.116,1.344-0.349c0.664-0.232,1.276-0.381,1.842-0.448
	c0.299-0.033,0.489-0.141,0.573-0.323c0.083-0.182,0.189-0.307,0.324-0.374c0.132,0,0.198,0.008,0.198,0.025
	s0.033,0.058,0.101,0.125c0.065-0.066,0.174-0.149,0.323-0.249c0.15-0.1,0.258-0.149,0.324-0.149c0.066,0.034,0.183,0.034,0.349,0
	c0.166-0.033,0.266,0.017,0.299,0.149l0.148-0.149c0.066-0.033,0.116-0.066,0.149-0.1c0.033-0.033,0.066-0.05,0.1-0.05
	c0.066,0.067,0.207,0.133,0.423,0.199c0.217,0.067,0.424,0.1,0.623,0.1l-0.1,0.249c0.166,0.033,0.224,0.017,0.174-0.05
	c-0.05-0.066,0.059-0.1,0.324-0.1c-0.034,0,0.025,0.017,0.174,0.05c0.149,0.033,0.315,0.083,0.498,0.149
	c0.183,0.067,0.34,0.149,0.473,0.249s0.149,0.216,0.051,0.349l0.148,0.398c-0.231,0.167-0.457,0.299-0.672,0.398
	c-0.216,0.1-0.391,0.233-0.522,0.398c-0.033,0-0.083-0.016-0.149-0.05c-0.067,0-0.117-0.008-0.149-0.025
	c-0.033-0.016-0.066-0.025-0.1-0.025c0,0.167,0.008,0.258,0.025,0.274c0.016,0.017,0.058,0.058,0.125,0.125
	c-0.466,0.067-0.864,0.167-1.195,0.299c-0.333,0.133-0.78,0.199-1.344,0.199c-0.167,0-0.357,0.067-0.573,0.199
	c-0.216,0.133-0.448,0.274-0.697,0.423c-0.249,0.149-0.515,0.282-0.796,0.398c-0.283,0.117-0.59,0.174-0.921,0.174
	c-0.034,0-0.167,0.025-0.398,0.075c-0.231,0.05-0.489,0.125-0.771,0.224c-0.283,0.1-0.54,0.208-0.772,0.324
	c-0.231,0.117-0.348,0.257-0.348,0.423l-0.1-0.249c-0.067,0.199-0.134,0.34-0.199,0.423c-0.067,0.083-0.133,0.208-0.199,0.374
	c-0.1-0.1-0.148-0.19-0.148-0.274C94.321,179.753,94.321,179.579,94.321,179.313z M93.675,179.96h-0.149
	c0.066-0.033,0.107-0.058,0.125-0.075c0.017-0.016,0.059-0.025,0.125-0.025L93.675,179.96z M98.802,178.367h-0.149l0.149-0.099
	V178.367z M103.831,175.081c-0.067,0-0.101,0.05-0.101,0.149c0,0.067,0.033,0.1,0.101,0.1c0.065,0,0.1-0.033,0.1-0.1
	C103.93,175.131,103.896,175.081,103.831,175.081z M104.08,175.878c0.065,0,0.099,0.05,0.099,0.149c0,0.067-0.033,0.099-0.099,0.099
	c-0.067,0-0.101-0.032-0.101-0.099C103.979,175.928,104.013,175.878,104.08,175.878z M106.618,183.545
	c-0.267,0.199-0.365,0.382-0.299,0.547h-0.548c0.033-0.066,0.017-0.116-0.05-0.149c-0.067-0.033-0.133-0.083-0.199-0.149
	l-0.249,0.149c-0.032,0.133-0.141,0.116-0.322-0.05c-0.184-0.166-0.291-0.232-0.324-0.199c-0.267-0.132-0.398-0.39-0.398-0.772
	c0-0.381,0-0.605,0-0.672c0-0.365,0.018-0.747,0.05-1.145c0.033-0.398,0.101-0.863,0.199-1.394c0-0.033,0.025-0.174,0.075-0.423
	s0.116-0.531,0.199-0.847c0.083-0.315,0.148-0.647,0.199-0.996c0.05-0.348,0.074-0.655,0.074-0.921c0-0.265,0.066-0.448,0.199-0.547
	c0.132-0.1,0.199-0.182,0.199-0.249l0.05-0.249l0.05-0.647c-0.032-0.166-0.05-0.332-0.05-0.498c-0.033-0.166-0.05-0.324-0.05-0.473
	c0-0.149,0-0.273,0-0.373c-0.067-0.464-0.042-0.888,0.075-1.27c0.115-0.381,0.174-0.705,0.174-0.971l-0.149-0.149l0.299-0.249
	c0-0.132-0.009-0.19-0.024-0.174c-0.018,0.017-0.059-0.008-0.125-0.075c0.166-0.1,0.249-0.331,0.249-0.697l-0.101-0.249
	c0.066,0,0.107-0.058,0.125-0.174c0.017-0.116,0.059-0.224,0.125-0.323h-0.148c0-1.195,0.033-2.182,0.1-2.962
	c0.066-0.779,0.142-1.443,0.225-1.991c0.082-0.547,0.166-1.045,0.249-1.494c0.083-0.448,0.125-0.954,0.125-1.518
	c0-0.265,0.083-0.448,0.249-0.548s0.249-0.215,0.249-0.348l-0.249,0.099c0-0.132,0.1-0.256,0.299-0.373
	c0.199-0.116,0.281-0.24,0.249-0.374l0.099,0.1c0.066-0.066,0.116-0.132,0.149-0.199c0.033-0.066,0.083-0.132,0.148-0.199
	c0.266,0,0.423,0.05,0.474,0.149c0.05,0.099,0.156,0.183,0.322,0.249h1.543l0.3,0.149l0.249-0.149l0.397,0.149l0.249-0.149
	c0.166,0.067,0.249,0.149,0.249,0.249s-0.042,0.199-0.125,0.299c-0.083,0.099-0.167,0.208-0.249,0.323
	c-0.083,0.117-0.125,0.224-0.125,0.324l0.149,0.149c0,0.299-0.008,0.465-0.025,0.498c-0.017,0.034-0.058,0.083-0.125,0.149
	c0,0.067,0.05,0.149,0.149,0.249c0,0.266-0.009,0.407-0.025,0.423c-0.017,0.017-0.058,0.058-0.125,0.125
	c0,0.067,0.05,0.149,0.149,0.249c-0.033,0.199-0.059,0.457-0.075,0.772c-0.018,0.315-0.092,0.506-0.225,0.572l0.149,0.1
	c0,0.133-0.05,0.266-0.149,0.398l0.3,0.149c0,0.067-0.067,0.167-0.199,0.298c-0.133,0.133-0.199,0.333-0.199,0.598l0.101,0.149
	c0.032,0.167,0.017,0.415-0.051,0.747c-0.066,0.332-0.141,0.681-0.224,1.045c-0.083,0.366-0.167,0.714-0.249,1.045
	c-0.083,0.332-0.125,0.581-0.125,0.747l0.149,0.149c-0.101,0.1,0.016,0.075,0.349-0.075c0.331-0.149,0.829-0.224,1.493-0.224
	c0.1,0,0.381-0.083,0.846-0.249c0.464-0.166,0.879-0.249,1.245-0.249c0.863,0,1.494,0.009,1.892,0.025
	c0.398,0.017,0.614,0.142,0.647,0.374c-0.133,0.232-0.241,0.457-0.324,0.672c-0.083,0.216-0.291,0.341-0.622,0.374l0.249,0.1
	c0.101,0.1,0.101,0.167,0,0.199c-0.1,0.034-0.232,0.067-0.397,0.1c-0.167,0.034-0.324,0.083-0.474,0.149
	c-0.148,0.067-0.224,0.149-0.224,0.249c0.065,0.133,0.033,0.241-0.101,0.324c-0.133,0.083-0.299,0.167-0.497,0.249
	c-0.199,0.083-0.383,0.149-0.548,0.199c-0.167,0.05-0.249,0.092-0.249,0.125c-0.1,0-0.174-0.008-0.224-0.025
	c-0.05-0.016-0.108-0.041-0.174-0.075c-0.199,0-0.473,0.025-0.821,0.075c-0.348,0.05-0.697,0.108-1.045,0.174
	c-0.349,0.067-0.646,0.142-0.896,0.224c-0.249,0.083-0.392,0.142-0.424,0.174c0,0.133,0.009,0.191,0.025,0.174
	s0.058,0.008,0.125,0.075c-0.067,0.298-0.125,0.54-0.174,0.722c-0.05,0.183-0.101,0.349-0.149,0.498
	c-0.05,0.149-0.107,0.299-0.174,0.448c-0.067,0.149-0.167,0.341-0.298,0.573l0.149,0.149l-0.101,0.1
	c-0.034,0.034-0.05,0.083-0.05,0.149c0,0.266-0.142,0.448-0.423,0.548c-0.282,0.1-0.44,0.282-0.474,0.547
	c0.033,0.1,0.092,0.133,0.175,0.1c0.083-0.033,0.141,0.017,0.174,0.149l0.299-0.149c0.066-0.033,0.1-0.025,0.1,0.025
	c0,0.05,0,0.125,0,0.224c0,0.099,0.009,0.208,0.025,0.324c0.016,0.117,0.058,0.191,0.125,0.224c-0.167,0.1-0.299,0.233-0.398,0.398
	l0.149,0.149c0.033,0.332,0.008,0.522-0.075,0.572c-0.083,0.05-0.158,0.158-0.224,0.324c0.132,0,0.215,0.083,0.249,0.249
	c0.033,0.167,0.083,0.266,0.148,0.299l-0.498,0.249c0.133,0.167,0.232,0.308,0.3,0.423c0.065,0.117,0.132,0.208,0.198,0.274
	c0,0.067-0.033,0.199-0.1,0.398v0.1l0.498-0.498c-0.067,0.299-0.199,0.515-0.398,0.647h0.3l-0.398,0.797
	c0.066,0.067,0.149,0.124,0.249,0.174c0.1,0.05,0.149,0.158,0.149,0.324l-0.149,0.398h0.149c0.031,0.133-0.051,0.273-0.249,0.423
	c-0.199,0.15-0.249,0.241-0.149,0.274h0.1v0.1c0.101-0.1,0.107-0.1,0.025,0c-0.083,0.1-0.191,0.224-0.324,0.374
	c-0.133,0.149-0.273,0.298-0.423,0.448c-0.149,0.149-0.257,0.191-0.323,0.125v-0.249c-0.034,0.067-0.092,0.108-0.174,0.125
	c-0.083,0.017-0.158,0.059-0.224,0.125c-0.067-0.066-0.108-0.132-0.125-0.199c-0.018-0.066-0.059-0.132-0.125-0.199
	c-0.101,0.099-0.174,0.166-0.225,0.199c-0.05,0.034-0.157,0.05-0.323,0.05l-0.101-0.1l-0.397,0.249c0-0.066,0-0.141,0-0.224
	s0.083-0.19,0.249-0.323L106.618,183.545z M105.672,174.285c-0.067,0-0.101,0.05-0.101,0.149c0,0.067,0.033,0.1,0.101,0.1
	c0.065,0,0.1-0.033,0.1-0.1C105.771,174.335,105.738,174.285,105.672,174.285z M108.211,184.889h-0.149
	c0.199-0.199,0.332-0.299,0.398-0.299L108.211,184.889z M108.857,176.924c0-0.033-0.032-0.05-0.1-0.05
	c-0.033,0-0.05,0.017-0.05,0.05v0.1h0.05C108.825,177.023,108.857,176.991,108.857,176.924z M109.106,176.078
	c0.066,0,0.101,0.049,0.101,0.149c0,0.067-0.034,0.1-0.101,0.1s-0.1-0.033-0.1-0.1C109.008,176.127,109.041,176.078,109.106,176.078
	z M109.506,179.711c0.065,0,0.1,0.05,0.1,0.149c0,0.067-0.034,0.1-0.1,0.1c-0.067,0-0.101-0.033-0.101-0.1
	C109.405,179.761,109.438,179.711,109.506,179.711z M114.683,171.796c0.033,0,0.05,0.05,0.05,0.149c0,0.067-0.017,0.1-0.05,0.1
	c-0.066,0-0.1-0.033-0.1-0.1C114.583,171.846,114.616,171.796,114.683,171.796z M114.932,171.646c0,0.067-0.034,0.1-0.1,0.1h-0.05
	v-0.1l0.05-0.099C114.897,171.547,114.932,171.581,114.932,171.646z"/>
<path fill="#2A73DD" d="M116.523,178.566c0-0.398,0-0.812,0-1.245c0-0.431,0.018-0.829,0.051-1.195
	c0.032-0.365,0.058-0.672,0.074-0.921c0.018-0.249,0.059-0.39,0.125-0.423c0.033-0.033,0.132-0.107,0.3-0.224
	c0.165-0.116,0.349-0.232,0.547-0.349c0.198-0.116,0.39-0.232,0.572-0.349c0.183-0.116,0.29-0.19,0.324-0.224l0.1-0.1
	c0.065,0,0.198-0.066,0.397-0.199c0.199-0.132,0.332-0.199,0.398-0.199c0.065,0.034,0.141,0,0.224-0.1
	c0.082-0.1,0.182-0.207,0.298-0.323c0.116-0.116,0.232-0.232,0.35-0.349c0.115-0.116,0.224-0.174,0.323-0.174
	c0.132,0,0.432-0.132,0.896-0.398c0.464-0.265,0.829-0.53,1.095-0.796c0-0.132,0.033-0.257,0.1-0.374
	c0.066-0.116,0.116-0.207,0.149-0.273c0-0.166-0.042-0.34-0.125-0.523c-0.083-0.182-0.125-0.356-0.125-0.522l0.149-0.149
	c0-0.066,0.041-0.291,0.125-0.672c0.083-0.381,0.166-0.812,0.249-1.294c0.083-0.48,0.166-0.954,0.249-1.418s0.125-0.829,0.125-1.095
	c0-0.033-0.018-0.042-0.051-0.025c-0.032,0.017-0.116,0.058-0.249,0.125c-0.133,0.067-0.34,0.167-0.622,0.298
	c-0.281,0.133-0.672,0.299-1.17,0.498c-0.066,0-0.266,0.117-0.597,0.349c-0.333,0.232-0.532,0.348-0.598,0.348
	c-0.465,0.167-0.78,0.291-0.946,0.374c-0.167,0.083-0.332,0.125-0.498,0.125c-0.133,0.1-0.307,0.033-0.521-0.199
	c-0.217-0.232-0.424-0.381-0.623-0.448c0.032,0-0.025-0.025-0.175-0.075c-0.148-0.05-0.308-0.124-0.473-0.224
	c-0.167-0.1-0.324-0.241-0.473-0.423c-0.149-0.182-0.225-0.423-0.225-0.722v-0.548l0.349-0.149c0.166-0.066,0.299-0.157,0.397-0.273
	c0.1-0.116,0.282-0.157,0.547-0.125c0,0.1,0.075,0.117,0.225,0.05c0.148-0.066,0.349-0.157,0.598-0.274
	c0.249-0.116,0.522-0.232,0.821-0.349c0.299-0.116,0.58-0.174,0.846-0.174c0.265,0,0.556-0.083,0.871-0.249s0.523-0.216,0.623-0.149
	c0.066,0,0.199-0.066,0.398-0.199c0.198-0.132,0.364-0.199,0.497-0.199c0.166,0.067,0.308,0.034,0.424-0.1
	c0.115-0.132,0.249-0.274,0.397-0.423c0.149-0.149,0.35-0.298,0.599-0.448c0.249-0.15,0.621-0.224,1.119-0.224
	c0.432-0.066,0.938,0.009,1.519,0.224c0.581,0.216,1.17,0.407,1.768,0.572c0.166,0.034,0.35,0.142,0.547,0.324
	c0.199,0.183,0.332,0.241,0.398,0.174c-0.033,0.266-0.075,0.522-0.125,0.771s-0.108,0.473-0.174,0.672h0.397
	c0,0.232-0.024,0.398-0.074,0.498c-0.051,0.1-0.108,0.183-0.175,0.249c-0.066,0.067-0.125,0.149-0.174,0.249
	s-0.075,0.266-0.075,0.498c0.166-0.1,0.267-0.132,0.3-0.1c0.032,0.034,0.024,0.092-0.025,0.174c-0.05,0.083-0.142,0.174-0.274,0.274
	c-0.133,0.1-0.266,0.149-0.397,0.149l0.1,0.149c0,0.1-0.009,0.174-0.024,0.224c-0.018,0.049-0.042,0.108-0.075,0.174
	c0.199,0.133,0.249,0.283,0.148,0.448c-0.1,0.167-0.148,0.332-0.148,0.498v0.099h0.249c0,0.1,0.016,0.199,0.049,0.299
	c0.066,0.199,0.1,0.366,0.1,0.498c0,0.167-0.024,0.274-0.074,0.323c-0.05,0.05-0.108,0.1-0.175,0.149
	c-0.066,0.05-0.133,0.1-0.198,0.149c-0.067,0.05-0.101,0.158-0.101,0.324c0.066,0.067,0.199,0.1,0.398,0.1
	c0,0.067-0.042,0.183-0.125,0.349s-0.125,0.282-0.125,0.348c-0.167,0.266-0.258,0.473-0.274,0.623
	c-0.017,0.149-0.024,0.208-0.024,0.174c0.032-0.066,0.106-0.132,0.224-0.199c0.116-0.066,0.224-0.132,0.324-0.199
	c0,0.067-0.05,0.149-0.149,0.249c0,0.1-0.059,0.241-0.174,0.423c-0.117,0.183-0.142,0.307-0.075,0.374h0.149
	c0,0.465-0.125,0.78-0.374,0.946c-0.249,0.167-0.49,0.382-0.722,0.647l0.148,0.1c-0.167,0.199-0.291,0.382-0.374,0.548
	c-0.083,0.167-0.224,0.349-0.423,0.547c-0.167,0.167-0.282,0.316-0.348,0.448c-0.067,0.133-0.143,0.232-0.225,0.299
	c-0.083,0.067-0.208,0.117-0.374,0.149c-0.167,0.033-0.416,0.033-0.747,0c-0.133-0.033-0.323,0.017-0.572,0.149
	c-0.249,0.133-0.516,0.274-0.797,0.423c-0.281,0.149-0.571,0.291-0.87,0.423c-0.3,0.133-0.565,0.199-0.797,0.199
	c0.032-0.033-0.042-0.008-0.224,0.074c-0.183,0.083-0.397,0.208-0.646,0.374c-0.249,0.167-0.474,0.332-0.673,0.498
	c-0.198,0.167-0.315,0.298-0.349,0.398c0,0.266,0.008,0.44,0.025,0.523c0.017,0.083,0.008,0.174-0.025,0.274
	c0.066,0.033,0.174,0.042,0.324,0.025c0.148-0.017,0.307-0.025,0.473-0.025c0.797-0.232,1.46-0.398,1.992-0.498
	c0.53-0.1,0.987-0.166,1.369-0.199c0.381-0.033,0.697-0.041,0.946-0.025c0.249,0.017,0.488,0.025,0.722,0.025
	c0.033,0,0.116,0.034,0.249,0.1c0.132,0.067,0.273,0.142,0.423,0.224c0.149,0.083,0.274,0.158,0.374,0.224
	c0.1,0.067,0.149,0.117,0.149,0.149c0,0.167-0.093,0.34-0.274,0.522c-0.183,0.183-0.357,0.357-0.522,0.523
	c-0.896,0.167-1.519,0.34-1.866,0.522c-0.349,0.183-0.664,0.357-0.946,0.523c-0.282,0.167-0.656,0.299-1.12,0.397
	c-0.465,0.1-1.262,0.149-2.39,0.149c-0.365,0-0.64,0.025-0.821,0.075c-0.183,0.05-0.357,0.083-0.523,0.1s-0.34,0-0.521-0.05
	c-0.183-0.05-0.44-0.19-0.771-0.423c0-0.266-0.133-0.523-0.397-0.772C116.657,179.487,116.523,179.098,116.523,178.566z
	 M128.124,171.298c-0.067,0-0.101,0.05-0.101,0.149c0,0.067,0.033,0.1,0.101,0.1c0.065,0,0.1-0.033,0.1-0.1
	C128.224,171.348,128.189,171.298,128.124,171.298z M132.354,183.047c-0.266,0.199-0.365,0.382-0.298,0.548h-0.548
	c0.033-0.066,0.016-0.116-0.05-0.149c-0.067-0.033-0.133-0.083-0.199-0.149l-0.249,0.149c-0.033,0.133-0.141,0.117-0.323-0.05
	c-0.183-0.166-0.291-0.232-0.324-0.199c-0.266-0.132-0.397-0.39-0.397-0.771c0-0.381,0-0.605,0-0.672
	c0-0.365,0.017-0.747,0.05-1.145c0.033-0.398,0.101-0.862,0.199-1.394c0-0.033,0.024-0.174,0.075-0.423
	c0.05-0.249,0.115-0.53,0.198-0.846c0.083-0.315,0.149-0.646,0.199-0.996s0.075-0.655,0.075-0.921c0-0.266,0.066-0.448,0.199-0.548
	c0.132-0.1,0.199-0.182,0.199-0.249l0.05-0.249l0.05-0.647c-0.033-0.166-0.05-0.332-0.05-0.498c-0.033-0.166-0.05-0.324-0.05-0.473
	s0-0.274,0-0.374c-0.067-0.464-0.042-0.887,0.074-1.27c0.116-0.381,0.175-0.705,0.175-0.971l-0.149-0.149l0.299-0.249
	c0-0.132-0.009-0.191-0.024-0.174c-0.018,0.017-0.059-0.008-0.125-0.075c0.166-0.1,0.249-0.332,0.249-0.697l-0.101-0.249
	c0.066,0,0.107-0.058,0.125-0.174c0.017-0.116,0.059-0.224,0.125-0.324h-0.148c0-1.195,0.032-2.182,0.1-2.962
	c0.066-0.779,0.141-1.444,0.224-1.991c0.082-0.548,0.166-1.046,0.249-1.494c0.083-0.448,0.125-0.954,0.125-1.519
	c0-0.265,0.083-0.448,0.249-0.547c0.166-0.1,0.249-0.216,0.249-0.349l-0.249,0.1c0-0.132,0.101-0.257,0.299-0.374
	c0.199-0.116,0.281-0.24,0.249-0.373l0.1,0.1c0.065-0.066,0.116-0.132,0.148-0.199c0.033-0.066,0.083-0.132,0.149-0.199
	c0.265,0,0.423,0.05,0.473,0.149c0.051,0.099,0.157,0.183,0.323,0.249h1.543l0.299,0.149l0.249-0.149l0.398,0.149l0.249-0.149
	c0.166,0.067,0.249,0.149,0.249,0.249s-0.042,0.199-0.125,0.299c-0.083,0.1-0.167,0.208-0.249,0.324
	c-0.083,0.117-0.125,0.224-0.125,0.323l0.148,0.149c0,0.299-0.008,0.465-0.024,0.498c-0.018,0.033-0.059,0.083-0.125,0.149
	c0,0.067,0.05,0.149,0.148,0.249c0,0.266-0.008,0.407-0.024,0.423c-0.018,0.017-0.059,0.059-0.125,0.125
	c0,0.067,0.05,0.149,0.148,0.249c-0.032,0.199-0.058,0.457-0.074,0.771c-0.018,0.316-0.093,0.506-0.225,0.573l0.149,0.1
	c0,0.133-0.05,0.266-0.149,0.398l0.299,0.149c0,0.067-0.066,0.167-0.198,0.299c-0.134,0.133-0.199,0.332-0.199,0.597l0.1,0.149
	c0.033,0.167,0.018,0.416-0.05,0.747c-0.067,0.333-0.141,0.681-0.224,1.045c-0.083,0.366-0.167,0.714-0.249,1.046
	c-0.083,0.332-0.125,0.581-0.125,0.747l0.148,0.149c-0.1,0.1,0.017,0.075,0.35-0.075c0.33-0.149,0.828-0.224,1.492-0.224
	c0.101,0,0.382-0.083,0.847-0.249c0.464-0.166,0.879-0.249,1.245-0.249c0.862,0,1.493,0.009,1.892,0.025
	c0.398,0.018,0.614,0.142,0.646,0.374c-0.133,0.232-0.24,0.457-0.323,0.672c-0.083,0.216-0.291,0.34-0.622,0.373l0.249,0.1
	c0.1,0.1,0.1,0.167,0,0.199c-0.101,0.033-0.233,0.067-0.398,0.1c-0.167,0.033-0.324,0.083-0.473,0.149
	c-0.149,0.067-0.225,0.149-0.225,0.249c0.066,0.133,0.033,0.241-0.1,0.324s-0.299,0.167-0.498,0.249
	c-0.199,0.083-0.382,0.149-0.547,0.199c-0.167,0.05-0.249,0.092-0.249,0.125c-0.1,0-0.174-0.008-0.224-0.025
	c-0.051-0.017-0.108-0.042-0.175-0.075c-0.198,0-0.473,0.025-0.82,0.075c-0.349,0.05-0.697,0.108-1.045,0.174
	c-0.35,0.067-0.647,0.141-0.896,0.224s-0.391,0.142-0.423,0.174c0,0.133,0.008,0.191,0.025,0.174
	c0.017-0.016,0.058,0.009,0.125,0.075c-0.067,0.299-0.125,0.54-0.175,0.722c-0.05,0.183-0.1,0.349-0.148,0.498
	s-0.108,0.299-0.174,0.448c-0.067,0.149-0.167,0.341-0.298,0.573l0.148,0.149l-0.1,0.1c-0.034,0.033-0.05,0.083-0.05,0.149
	c0,0.266-0.143,0.448-0.424,0.547c-0.281,0.1-0.439,0.282-0.473,0.548c0.033,0.1,0.091,0.133,0.174,0.1
	c0.083-0.033,0.142,0.017,0.174,0.149l0.3-0.149c0.065-0.033,0.1-0.025,0.1,0.025c0,0.049,0,0.124,0,0.224
	c0,0.1,0.008,0.208,0.025,0.324c0.016,0.117,0.058,0.191,0.125,0.224c-0.167,0.1-0.3,0.232-0.398,0.398l0.149,0.149
	c0.032,0.333,0.008,0.523-0.075,0.573c-0.083,0.05-0.158,0.158-0.225,0.324c0.133,0,0.216,0.083,0.249,0.249
	c0.033,0.167,0.083,0.266,0.149,0.299l-0.498,0.249c0.132,0.167,0.232,0.307,0.299,0.423c0.066,0.117,0.132,0.208,0.199,0.274
	c0,0.067-0.034,0.199-0.1,0.398v0.1l0.497-0.498c-0.066,0.299-0.198,0.515-0.397,0.647h0.299l-0.397,0.796
	c0.065,0.067,0.148,0.125,0.249,0.174c0.1,0.049,0.148,0.158,0.148,0.324l-0.148,0.398h0.148c0.032,0.133-0.05,0.274-0.249,0.423
	c-0.199,0.149-0.249,0.241-0.148,0.274h0.1v0.099c0.1-0.099,0.107-0.099,0.025,0c-0.083,0.1-0.191,0.224-0.324,0.374
	c-0.133,0.149-0.274,0.299-0.423,0.448c-0.149,0.149-0.258,0.191-0.323,0.125v-0.249c-0.034,0.067-0.092,0.108-0.174,0.125
	c-0.083,0.017-0.158,0.058-0.225,0.125c-0.066-0.066-0.107-0.132-0.125-0.199c-0.017-0.066-0.058-0.132-0.125-0.199
	c-0.1,0.1-0.174,0.167-0.224,0.199c-0.05,0.033-0.158,0.05-0.324,0.05l-0.1-0.1l-0.398,0.249c0-0.066,0-0.141,0-0.224
	s0.083-0.191,0.249-0.324L132.354,183.047z M131.41,173.788c-0.067,0-0.101,0.05-0.101,0.149c0,0.067,0.033,0.1,0.101,0.1
	c0.065,0,0.1-0.033,0.1-0.1C131.509,173.837,131.476,173.788,131.41,173.788z M133.949,184.391H133.8
	c0.199-0.199,0.332-0.299,0.397-0.299L133.949,184.391z M134.596,176.426c0-0.033-0.033-0.05-0.1-0.05
	c-0.033,0-0.051,0.017-0.051,0.05v0.1h0.051C134.562,176.525,134.596,176.493,134.596,176.426z M134.845,175.58
	c0.066,0,0.1,0.05,0.1,0.149c0,0.067-0.033,0.1-0.1,0.1c-0.067,0-0.1-0.033-0.1-0.1C134.745,175.629,134.777,175.58,134.845,175.58z
	 M135.243,179.214c0.065,0,0.1,0.05,0.1,0.149c0,0.067-0.034,0.1-0.1,0.1c-0.067,0-0.101-0.033-0.101-0.1
	C135.144,179.264,135.176,179.214,135.243,179.214z M140.42,171.298c0.033,0,0.05,0.05,0.05,0.149c0,0.067-0.017,0.1-0.05,0.1
	c-0.067,0-0.101-0.033-0.101-0.1C140.32,171.348,140.354,171.298,140.42,171.298z M140.669,171.149c0,0.067-0.034,0.1-0.101,0.1
	h-0.05v-0.1l0.05-0.1C140.636,171.049,140.669,171.082,140.669,171.149z"/>
<path fill="#0F489C" d="M141.714,166.668c0-0.199,0.05-0.398,0.148-0.598l0.199-0.398l0.946-0.299l-0.598-0.697v-0.697
	c0-0.166,0.05-0.381,0.148-0.647c0.101-0.265,0.149-0.481,0.149-0.647l0.349-0.697v-0.647c0-0.1,0.032-0.241,0.099-0.423
	s0.142-0.381,0.225-0.597c0.083-0.216,0.157-0.415,0.224-0.598c0.066-0.182,0.101-0.324,0.101-0.423v-0.298l0.597-1.892
	c0.166-0.265,0.406-0.406,0.722-0.423s0.64,0.025,0.972,0.125s0.63,0.208,0.896,0.323c0.265,0.117,0.448,0.174,0.548,0.174
	l0.847,0.946c0.065,0,0.239,0,0.521,0s0.581,0.009,0.896,0.025c0.314,0.017,0.604,0.025,0.87,0.025s0.448,0,0.548,0l0.996,0.349
	c0.1,0,0.248,0.067,0.447,0.199c0.066,0.067,0.132,0.117,0.199,0.149c0.1,0.067,0.24,0.191,0.423,0.373
	c0.183,0.183,0.365,0.382,0.547,0.598c0.183,0.216,0.35,0.416,0.498,0.597c0.149,0.183,0.225,0.324,0.225,0.423
	c0,0.133,0.05,0.324,0.148,0.572c0.101,0.249,0.199,0.507,0.299,0.772c0.101-0.033,0.232-0.05,0.398-0.05
	c0.066,0,0.265-0.025,0.597-0.075c0.332-0.05,0.688-0.1,1.07-0.149c0.381-0.05,0.738-0.1,1.07-0.149
	c0.332-0.05,0.53-0.075,0.598-0.075l1.095-0.299c0.266-0.066,0.522-0.141,0.771-0.224s0.406-0.125,0.473-0.125
	c0.101,0,0.249-0.066,0.448-0.199c0.1-0.066,0.182-0.149,0.249-0.249c0.065-0.066,0.132-0.149,0.199-0.249
	c0.065-0.066,0.125-0.141,0.174-0.224c0.05-0.083,0.075-0.157,0.075-0.224c0.065-0.1,0.156-0.257,0.272-0.473
	c0.116-0.215,0.225-0.439,0.324-0.672c0.1-0.232,0.19-0.431,0.274-0.598c0.083-0.166,0.125-0.281,0.125-0.348
	c0-0.066,0.016-0.241,0.05-0.523c0.033-0.282,0.075-0.597,0.125-0.946c0.049-0.349,0.091-0.664,0.124-0.946s0.05-0.456,0.05-0.523
	l-0.199-0.697v-0.697l0.199-0.448l0.697-0.697h0.696l0.249-0.199c0.101,0,0.249-0.042,0.448-0.125s0.348-0.125,0.448-0.125h1.842
	l0.249,0.349l0.448,0.1v1.643l-0.249,0.448l-0.101,0.498c-0.066,0.332-0.1,0.548-0.1,0.647c-0.067,0.167-0.142,0.44-0.224,0.821
	c-0.083,0.382-0.158,0.78-0.225,1.195c-0.066,0.416-0.125,0.805-0.174,1.17c-0.05,0.366-0.075,0.597-0.075,0.697v0.249l-0.249,0.896
	c0,0.133-0.032,0.366-0.1,0.697c-0.067,0.332-0.101,0.564-0.101,0.697c0,0.067-0.024,0.199-0.074,0.398
	c-0.051,0.199-0.101,0.415-0.149,0.647s-0.099,0.448-0.148,0.647c-0.051,0.199-0.075,0.316-0.075,0.349
	c0,0.133-0.018,0.332-0.05,0.598c-0.034,0.266-0.06,0.54-0.075,0.821c-0.018,0.282-0.042,0.556-0.075,0.821
	c-0.034,0.266-0.05,0.448-0.05,0.548l-0.249,0.697l-0.101,0.697c-0.066,0.266-0.1,0.531-0.1,0.797v1.643l-0.249,0.199v0.946
	l-0.448-0.249h-0.696l-1.843-0.697l-0.447-0.199c-0.101,0-0.199-0.083-0.3-0.249c-0.066-0.066-0.116-0.149-0.148-0.249
	c0-0.033-0.025-0.141-0.075-0.324c-0.05-0.182-0.108-0.374-0.174-0.573c-0.067-0.199-0.125-0.381-0.174-0.547
	c-0.051-0.166-0.075-0.282-0.075-0.349v-0.896c0-0.132,0.042-0.324,0.125-0.572c0.083-0.249,0.125-0.423,0.125-0.523l0.1-1.245
	h-2.438c-0.067,0-0.291,0.025-0.672,0.075c-0.383,0.05-0.789,0.1-1.221,0.149c-0.432,0.05-0.838,0.1-1.22,0.149
	c-0.382,0.05-0.605,0.075-0.672,0.075h-0.249l-0.249,0.647c-0.1,0-0.216,0.092-0.349,0.274c-0.134,0.183-0.282,0.374-0.448,0.572
	c-0.167,0.233-0.35,0.498-0.548,0.797l-0.349,0.348c-0.1,0.1-0.24,0.224-0.423,0.374c-0.183,0.149-0.382,0.307-0.597,0.473
	c-0.216,0.167-0.416,0.323-0.598,0.473c-0.184,0.149-0.308,0.274-0.374,0.374l-0.349,0.299c-0.1,0-0.208,0.042-0.324,0.125
	s-0.224,0.158-0.323,0.224l-0.349,0.349c-0.167,0-0.447,0.108-0.847,0.324c-0.398,0.216-0.681,0.323-0.846,0.323h-0.647
	l-0.697-0.298c-0.1,0-0.272-0.033-0.521-0.1c-0.249-0.066-0.523-0.149-0.822-0.249c-0.298-0.1-0.572-0.182-0.821-0.249
	c-0.249-0.066-0.423-0.1-0.521-0.1c-0.233,0-0.448-0.05-0.647-0.149c-0.133-0.066-0.249-0.132-0.348-0.199l-0.349-0.697
	c-0.101-0.166-0.217-0.348-0.35-0.547c-0.133-0.199-0.231-0.332-0.299-0.398l-0.348-0.697v-1.345H141.714z M142.411,166.668h0.299
	l0.199-0.548l-0.599,0.05L142.411,166.668z M146.394,166.668v1.344h1.692c0.231,0,0.448-0.05,0.646-0.149
	c0.133-0.033,0.249-0.083,0.349-0.149c0.166-0.1,0.364-0.24,0.598-0.423c0.231-0.182,0.456-0.381,0.672-0.597
	c0.215-0.215,0.398-0.415,0.548-0.598c0.149-0.182,0.225-0.323,0.225-0.423v-2.34c-0.033-0.1-0.101-0.215-0.199-0.349
	c-0.067-0.1-0.149-0.207-0.249-0.324c-0.1-0.116-0.183-0.224-0.249-0.323l-0.996-0.996h-0.996c-0.199,0.1-0.366,0.216-0.498,0.348
	c-0.133,0.1-0.249,0.216-0.348,0.349c-0.101,0.133-0.149,0.232-0.149,0.299c-0.1,0.1-0.208,0.274-0.323,0.522
	c-0.117,0.249-0.241,0.523-0.374,0.822c-0.134,0.298-0.258,0.572-0.373,0.821c-0.117,0.249-0.208,0.423-0.274,0.522v0.647h0.647
	l-0.647,0.697L146.394,166.668z M146.742,164.677c0.166,0,0.249,0.108,0.249,0.323c0,0.216-0.083,0.324-0.249,0.324
	c-0.167,0-0.249-0.107-0.249-0.324C146.493,164.785,146.576,164.677,146.742,164.677z M147.737,160.993
	c0-0.166-0.05-0.249-0.148-0.249c-0.101,0-0.149,0.083-0.149,0.249c0,0.167,0.051,0.249,0.149,0.249S147.737,161.16,147.737,160.993
	z M147.688,162.885c0.166,0,0.249,0.117,0.249,0.349c0,0.232-0.083,0.349-0.249,0.349s-0.249-0.116-0.249-0.349
	C147.438,163.001,147.521,162.885,147.688,162.885z M148.186,161.989c0.166,0,0.249,0.108,0.249,0.324s-0.083,0.323-0.249,0.323
	c-0.167,0-0.249-0.107-0.249-0.323S148.02,161.989,148.186,161.989z M163.967,173.14l0.199,0.249l0.498,0.249l0.198,0.199
	l-0.198,0.448c0,0.067-0.018,0.149-0.051,0.249c-0.032,0.1-0.066,0.199-0.1,0.299l-0.099,0.398v1.593l-0.249,0.946l-0.149,2.091
	l0.149,1.792l-0.199,0.697c0,0.1-0.05,0.357-0.149,0.771c-0.1,0.416-0.148,0.689-0.148,0.822h-0.249l-0.398-0.199h-0.199
	l-0.248,0.448l-0.249,0.199h-0.448l-0.448,0.249l-0.249-0.249h-0.697c-0.066,0-0.19,0.05-0.374,0.149
	c-0.183,0.1-0.39,0.208-0.622,0.324c-0.231,0.117-0.447,0.224-0.646,0.323c-0.199,0.1-0.333,0.149-0.398,0.149
	c-0.066,0-0.216,0.034-0.447,0.1c-0.232,0.067-0.474,0.149-0.723,0.249s-0.489,0.182-0.722,0.249c-0.233,0.066-0.366,0.1-0.398,0.1
	c-0.066,0-0.174,0.025-0.323,0.075c-0.15,0.05-0.308,0.107-0.474,0.174l-0.598,0.199l-0.249,0.199v0.249l0.249,0.249l0.448,0.199
	c0.132,0,0.314-0.008,0.547-0.025c0.231-0.017,0.473-0.042,0.722-0.074c0.249-0.034,0.464-0.059,0.647-0.075
	c0.182-0.017,0.307-0.025,0.374-0.025c0.132,0,0.373-0.042,0.722-0.125s0.573-0.125,0.672-0.125c0.1,0,0.241-0.009,0.423-0.025
	c0.183-0.017,0.356-0.042,0.523-0.075c0.199-0.034,0.415-0.083,0.646-0.149c0.132,0,0.374-0.008,0.723-0.025
	c0.349-0.017,0.737-0.042,1.17-0.075c0.431-0.033,0.838-0.058,1.22-0.075c0.381-0.017,0.655-0.025,0.822-0.025h0.896
	c0.033,0.066,0.066,0.149,0.101,0.249c0.032,0.066,0.065,0.141,0.1,0.224c0.032,0.083,0.05,0.157,0.05,0.224v0.199l-0.447,0.498
	l-0.448,0.199c-0.133,0-0.415,0.075-0.847,0.224s-0.764,0.224-0.995,0.224c-0.067,0-0.199,0.025-0.398,0.075
	c-0.199,0.05-0.415,0.107-0.647,0.174c-0.231,0.066-0.447,0.125-0.646,0.174c-0.199,0.05-0.332,0.075-0.398,0.075
	c-0.232,0-0.457,0.041-0.672,0.125c-0.216,0.083-0.457,0.19-0.722,0.324h-4.829c0-0.133-0.083-0.283-0.249-0.448
	c-0.167-0.167-0.299-0.249-0.397-0.249l-0.946-0.448l-0.199-0.249l-0.498-0.697c-0.231-0.365-0.365-0.722-0.397-1.07
	c-0.034-0.348-0.051-0.754-0.051-1.22v-0.896l0.249-0.249l0.896-0.199c0.132,0,0.365-0.083,0.697-0.249s0.563-0.249,0.696-0.249
	c0.1,0,0.281-0.075,0.547-0.224s0.465-0.224,0.599-0.224c0.065-0.066,0.174-0.141,0.323-0.224c0.148-0.083,0.307-0.157,0.473-0.224
	c0.166-0.1,0.365-0.182,0.597-0.249l0.599-0.498c0.166-0.132,0.314-0.257,0.447-0.374c0.132-0.116,0.232-0.207,0.299-0.274
	l0.498-0.448l0.199-0.448v-3.435h-0.448c-0.066,0-0.231,0.05-0.497,0.149c-0.267,0.1-0.557,0.199-0.871,0.299
	c-0.316,0.1-0.614,0.199-0.896,0.298c-0.282,0.1-0.439,0.149-0.473,0.149c-0.133,0-0.291,0.042-0.474,0.125
	s-0.341,0.125-0.473,0.125h-0.448c-0.133,0-0.447-0.091-0.945-0.274c-0.498-0.182-0.88-0.323-1.146-0.423
	c-0.231-0.132-0.457-0.291-0.672-0.473c-0.216-0.182-0.44-0.34-0.672-0.473l-0.697-0.448l-0.249-0.249l-0.199-0.448v-0.448
	c0.663-0.132,1.386-0.224,2.166-0.274c0.779-0.05,1.501-0.19,2.166-0.423l0.697-0.199c0.1-0.066,0.34-0.149,0.722-0.249
	c0.382-0.1,0.788-0.207,1.221-0.324c0.431-0.116,0.838-0.224,1.22-0.324c0.381-0.099,0.639-0.182,0.771-0.249
	c0.101,0,0.323-0.083,0.673-0.249c0.349-0.166,0.572-0.249,0.672-0.249h1.643l0.896,0.249L163.967,173.14z"/>
<path fill="#0F489C" d="M181.341,168.759c0.1,0,0.349-0.008,0.747-0.025c0.397-0.016,0.829-0.033,1.294-0.05
	c0.465-0.016,0.896-0.033,1.294-0.05c0.398-0.016,0.647-0.025,0.747-0.025l0.796-0.05c0.066,0,0.24,0.034,0.523,0.1
	c0.28,0.067,0.455,0.1,0.521,0.1c0.431,0.067,0.729,0.142,0.896,0.224c0.166,0.083,0.273,0.167,0.323,0.249
	c0.051,0.083,0.075,0.167,0.075,0.249c0,0.083,0.033,0.158,0.101,0.224l-0.35,0.398c0,0.133-0.092,0.199-0.273,0.199
	c-0.184,0-0.357,0-0.522,0c0.033,0.266-0.067,0.448-0.299,0.547c-0.232,0.1-0.506,0.167-0.821,0.199
	c-0.315,0.033-0.623,0.058-0.921,0.075c-0.299,0.017-0.48,0.075-0.548,0.174c-0.73,0.067-1.22,0.083-1.469,0.05
	c-0.249-0.033-0.433-0.083-0.547-0.149c-0.117-0.066-0.249-0.125-0.398-0.174c-0.149-0.049-0.49-0.058-1.021-0.025
	c-0.134,0.067-0.316,0.125-0.548,0.174c-0.232,0.05-0.416,0.108-0.548,0.174c-0.066,0-0.19,0.008-0.374,0.025
	c-0.183,0.017-0.356-0.025-0.521-0.125c-0.167,0.232-0.398,0.398-0.697,0.498s-0.531,0.149-0.697,0.149v-0.149
	c-0.066,0.034-0.158,0.025-0.273-0.025c-0.117-0.05-0.208-0.075-0.273-0.075c-0.167,0.067-0.283,0.316-0.349,0.747
	c-0.133-0.033-0.199-0.149-0.199-0.349c0-0.2-0.017-0.349-0.05-0.448l-0.199,0.249l-1.195,0.1c-0.231,0.034-0.415,0.142-0.547,0.324
	c-0.133,0.183-0.416,0.291-0.846,0.324c0.065-0.199,0.1-0.332,0.1-0.398c-0.066,0.067-0.198,0.117-0.397,0.149
	c-0.199,0.033-0.316,0.133-0.35,0.299c-0.066,0.133-0.157,0.208-0.272,0.224c-0.117,0.017-0.241,0.025-0.374,0.025
	s-0.282,0.025-0.448,0.075c-0.167,0.05-0.315,0.158-0.448,0.324l-0.349,0.1c-0.266,0.1-0.531,0.232-0.796,0.398
	c-0.267,0.166-0.581,0.117-0.946-0.149c-0.498-0.332-1.062-0.896-1.692-1.693c-0.101-0.132-0.167-0.249-0.199-0.348
	c-0.033-0.1-0.067-0.182-0.101-0.249c-0.066-0.166-0.074-0.29-0.024-0.374c0.05-0.083,0.106-0.107,0.174-0.075
	c0.664-0.066,1.203-0.157,1.618-0.274c0.415-0.116,0.778-0.224,1.095-0.323c0.315-0.1,0.614-0.191,0.896-0.274
	c0.281-0.083,0.621-0.141,1.021-0.174c0.166-0.033,0.514-0.091,1.045-0.174s0.996-0.207,1.395-0.373c0.065,0,0.39-0.033,0.971-0.1
	c0.58-0.066,1.228-0.141,1.94-0.224c0.714-0.083,1.395-0.149,2.041-0.199C180.719,168.734,181.142,168.727,181.341,168.759z
	 M171.186,173.837l0.249-0.249c0.199-0.066,0.332-0.05,0.398,0.05l-0.101,0.298l-0.299-0.199L171.186,173.837z M172.23,161.192
	c0-0.132,0.05-0.456,0.149-0.971c0.1-0.514,0.199-0.838,0.299-0.971c0-0.066,0.041-0.191,0.125-0.374
	c0.083-0.182,0.174-0.39,0.274-0.623c0.1-0.231,0.207-0.439,0.322-0.622c0.116-0.182,0.207-0.307,0.274-0.374l0.747-0.747
	l0.498-0.249h0.498c0.065,0,0.157,0.025,0.272,0.075c0.116,0.05,0.225,0.108,0.324,0.174c0.132,0.1,0.265,0.183,0.398,0.249
	c0.132,0.133,0.322,0.382,0.571,0.747c0.249,0.366,0.374,0.615,0.374,0.747h0.498l1.045,0.647c0.133,0,0.374,0.017,0.723,0.05
	c0.349,0.033,0.589,0.05,0.722,0.05l0.647,0.597l0.547,0.1c0.132,0,0.299,0.133,0.498,0.398c0.198,0.266,0.364,0.465,0.498,0.597
	l0.996,1.245l0.299,0.249c-0.199,0.199-0.299,0.448-0.299,0.747c-0.067,0.133-0.117,0.266-0.149,0.398
	c-0.067,0.266-0.099,0.448-0.099,0.547v0.249l0.249,0.498c0,0.067-0.018,0.142-0.051,0.224c-0.032,0.083-0.066,0.158-0.1,0.224
	l-0.099,0.299l-1.096,0.349l-0.646,0.647c-0.067,0-0.149,0.025-0.249,0.075c-0.101,0.05-0.199,0.108-0.298,0.174l-0.398,0.199
	c-0.067,0-0.191,0.025-0.374,0.075s-0.39,0.108-0.622,0.174c-0.231,0.067-0.439,0.124-0.623,0.174
	c-0.183,0.05-0.307,0.075-0.373,0.075h-2.189c-0.067,0-0.191-0.025-0.374-0.075c-0.184-0.05-0.392-0.107-0.622-0.174
	c-0.233-0.066-0.44-0.125-0.623-0.174c-0.184-0.05-0.308-0.075-0.374-0.075c-0.133,0-0.332-0.066-0.597-0.199
	c-0.134-0.066-0.267-0.149-0.398-0.249c-0.133-0.132-0.332-0.34-0.597-0.622c-0.267-0.282-0.465-0.489-0.599-0.623L172.23,161.192
	L172.23,161.192z M172.479,179.562c0-0.066,0.018-0.207,0.05-0.423c0.033-0.215,0.059-0.448,0.075-0.697
	c0.018-0.249,0.042-0.498,0.075-0.747s0.05-0.439,0.05-0.572l0.101-0.398c0.032-0.1,0.065-0.207,0.1-0.324
	c0.033-0.116,0.05-0.207,0.05-0.274c0-0.099,0.033-0.249,0.101-0.448c0.032-0.1,0.083-0.199,0.148-0.299
	c0-0.132,0.082-0.249,0.249-0.349c0.066-0.066,0.149-0.116,0.249-0.149c0.101,0.067,0.199,0.117,0.299,0.149
	c0.199,0.067,0.35,0.1,0.448,0.1c0.101,0,0.332,0.125,0.697,0.374s0.614,0.374,0.747,0.374v0.996l0.249,0.249
	c0.132-0.066,0.34-0.191,0.622-0.374c0.281-0.182,0.572-0.39,0.872-0.623c0.298-0.231,0.589-0.439,0.87-0.622
	c0.282-0.182,0.489-0.307,0.622-0.374l0.946-0.747l0.398-0.1c0.1-0.033,0.207-0.066,0.323-0.1c0.116-0.033,0.207-0.05,0.274-0.05
	h1.991c0.065,0.034,0.148,0.083,0.249,0.149c0.199,0.133,0.348,0.249,0.448,0.349l0.248,0.249c0,0.133,0.041,0.34,0.125,0.622
	c0.083,0.282,0.125,0.49,0.125,0.622v3.684l-0.248,0.996v0.249c0,0.133-0.075,0.374-0.225,0.722
	c-0.148,0.349-0.224,0.59-0.224,0.722v0.249c0,0.133-0.042,0.423-0.125,0.871c-0.083,0.448-0.124,0.739-0.124,0.871
	c0,0.067-0.019,0.158-0.05,0.274c-0.034,0.117-0.067,0.224-0.101,0.323l-0.1,0.398l-0.299,0.1c-0.199,0.066-0.35,0.1-0.448,0.1
	h-0.747c-0.133,0-0.382,0.041-0.747,0.125c-0.366,0.083-0.615,0.125-0.747,0.125h-4.182c-0.133,0-0.341-0.083-0.622-0.249
	c-0.283-0.166-0.474-0.249-0.573-0.249l-0.747-0.199l-1.245-1.245l-0.249-0.498L172.479,179.562L172.479,179.562z M177.109,160.694
	l-0.249,0.249c-0.364,0.764-0.605,1.486-0.722,2.166c-0.117,0.681-0.174,1.402-0.174,2.166h1.94l0.697-0.398
	c0.132,0,0.249-0.082,0.349-0.249c0.065-0.066,0.115-0.149,0.148-0.249v-0.747l-0.249-0.697l-0.249-0.996l-1.245-1.245H177.109
	L177.109,160.694z M176.911,183.744c0.63-0.132,1.211-0.266,1.742-0.398c0.53-0.132,1.096-0.332,1.692-0.597
	c0.1,0,0.215-0.033,0.349-0.1c0.066-0.033,0.116-0.083,0.149-0.149l0.249-4.431h-0.249c-0.1,0.033-0.199,0.083-0.299,0.149
	c-0.199,0.133-0.35,0.249-0.448,0.348c-0.133,0-0.298,0.092-0.498,0.274c-0.199,0.183-0.349,0.341-0.448,0.473
	c-0.066,0.067-0.157,0.158-0.272,0.273c-0.117,0.117-0.258,0.224-0.423,0.324c-0.167,0.133-0.35,0.266-0.548,0.398
	c-0.101,0.1-0.184,0.199-0.249,0.298c-0.167,0.167-0.249,0.316-0.249,0.448l-0.249,0.498l-0.498,0.697v0.747L176.911,183.744z
	 M177.807,171.796c0,0.133-0.033,0.216-0.099,0.249v-0.249H177.807z M183.532,160.445c0.132,0,0.198,0.083,0.198,0.249
	c0,0.167-0.066,0.249-0.198,0.249c-0.134,0-0.199-0.083-0.199-0.249C183.333,160.529,183.398,160.445,183.532,160.445z
	 M184.029,163.383c0,0.133-0.042,0.199-0.125,0.199s-0.125-0.066-0.125-0.199c0-0.132,0.042-0.199,0.125-0.199
	S184.029,163.25,184.029,163.383z M187.664,170.95l-0.398,0.05c0.066-0.033,0.101-0.058,0.101-0.075
	c0-0.016,0.065-0.041,0.198-0.075L187.664,170.95z"/>
<path fill="#0F489C" d="M192.243,179.313l-0.3,0.1c-0.099,0.033-0.216,0.05-0.348,0.05c-0.1-0.132-0.208-0.224-0.324-0.274
	c-0.117-0.05-0.19-0.091-0.224-0.125l-0.547,0.498c-0.797-0.132-1.344-0.29-1.644-0.473c-0.299-0.182-0.48-0.356-0.547-0.523
	c-0.066-0.166-0.1-0.323-0.1-0.473c0-0.15-0.067-0.274-0.199-0.374l0.149-0.398c0,0.034,0,0.017,0-0.05
	c0-0.066-0.051-0.132-0.149-0.199c0.033-0.431,0.107-0.913,0.224-1.444c0.116-0.531,0.24-1.07,0.373-1.618
	c0.133-0.547,0.241-1.078,0.324-1.593c0.083-0.514,0.125-0.987,0.125-1.419c-0.066-0.332-0.066-0.664,0-0.996
	s0.149-0.688,0.249-1.07c0.1-0.381,0.19-0.771,0.274-1.17c0.082-0.398,0.124-0.829,0.124-1.294l0.148-0.1c0-0.331,0-0.589,0-0.771
	c0-0.182,0-0.332,0-0.448c0-0.116-0.017-0.215-0.05-0.298s-0.067-0.191-0.1-0.324c0.1-0.132,0.148-0.232,0.148-0.299
	c0-0.066,0-0.125,0-0.174c0-0.049,0.025-0.116,0.075-0.199c0.05-0.082,0.157-0.224,0.324-0.423c0.763,0.033,1.359,0.117,1.792,0.249
	c0.431,0.133,0.771,0.282,1.021,0.448c0.249,0.167,0.44,0.332,0.573,0.498c0.132,0.167,0.282,0.298,0.448,0.398
	c0,0.133-0.042,0.299-0.125,0.498s-0.092,0.299-0.025,0.299c0,0.067-0.017,0.241-0.05,0.522c-0.034,0.282-0.05,0.457-0.05,0.523
	c0.033,0.266,0.05,0.515,0.05,0.747c0,0.232,0.066,0.432,0.199,0.598c0,0.166-0.009,0.298-0.025,0.398
	c-0.017,0.1-0.066,0.208-0.148,0.324c-0.083,0.117-0.184,0.266-0.3,0.448c-0.116,0.183-0.273,0.457-0.473,0.822
	c-0.067-0.033-0.05,0.042,0.05,0.224c0.101,0.183,0.216,0.273,0.35,0.273c-0.101,0.167-0.199,0.258-0.3,0.274
	c-0.1,0.017-0.167,0.108-0.198,0.274h0.249c0,0.199-0.051,0.332-0.149,0.398l0.149,0.249c0.032,0.366,0.017,0.573-0.051,0.623
	c-0.066,0.05-0.1,0.158-0.1,0.323l0.149,0.149c0.1,0.167,0.083,0.357-0.051,0.573c-0.133,0.216-0.198,0.373-0.198,0.473l0.249,0.1
	l-0.249,0.398c0,0.1,0.008,0.174,0.024,0.224c0.018,0.05,0.042,0.108,0.075,0.174c0.033,0.099,0.033,0.241,0,0.423
	c-0.033,0.183-0.067,0.307-0.1,0.374c0.032,0.067,0.058,0.149,0.074,0.249c0.018,0.1,0.075,0.117,0.175,0.05
	c0.231,0,0.68-0.116,1.344-0.349c0.664-0.232,1.276-0.381,1.842-0.448c0.299-0.033,0.489-0.141,0.573-0.323
	c0.083-0.182,0.189-0.307,0.324-0.374c0.132,0,0.198,0.008,0.198,0.025s0.033,0.058,0.101,0.125
	c0.065-0.066,0.174-0.149,0.324-0.249c0.149-0.1,0.257-0.149,0.323-0.149c0.066,0.034,0.183,0.034,0.349,0
	c0.166-0.033,0.266,0.017,0.299,0.149l0.148-0.149c0.066-0.033,0.116-0.066,0.149-0.1c0.033-0.033,0.066-0.05,0.1-0.05
	c0.066,0.067,0.207,0.133,0.424,0.199c0.216,0.067,0.424,0.1,0.623,0.1l-0.101,0.249c0.165,0.033,0.224,0.017,0.174-0.05
	c-0.05-0.066,0.059-0.1,0.324-0.1c-0.034,0,0.024,0.017,0.174,0.05c0.148,0.033,0.314,0.083,0.498,0.149
	c0.183,0.067,0.34,0.149,0.474,0.249c0.133,0.1,0.147,0.216,0.049,0.349l0.149,0.398c-0.231,0.167-0.457,0.299-0.672,0.398
	c-0.217,0.1-0.391,0.233-0.522,0.398c-0.033,0-0.084-0.016-0.148-0.05c-0.067,0-0.117-0.008-0.149-0.025
	c-0.033-0.016-0.066-0.025-0.101-0.025c0,0.167,0.008,0.258,0.025,0.274c0.016,0.017,0.058,0.058,0.125,0.125
	c-0.466,0.067-0.864,0.167-1.195,0.299c-0.333,0.133-0.78,0.199-1.344,0.199c-0.167,0-0.357,0.067-0.573,0.199
	c-0.216,0.133-0.448,0.274-0.697,0.423c-0.249,0.149-0.515,0.282-0.796,0.398c-0.283,0.117-0.59,0.174-0.921,0.174
	c-0.034,0-0.167,0.025-0.397,0.075c-0.232,0.05-0.49,0.125-0.771,0.224c-0.283,0.1-0.54,0.208-0.772,0.324
	c-0.231,0.117-0.348,0.257-0.348,0.423l-0.1-0.249c-0.067,0.199-0.133,0.34-0.199,0.423c-0.067,0.083-0.133,0.208-0.199,0.374
	c-0.1-0.1-0.148-0.19-0.148-0.274C192.243,179.753,192.243,179.579,192.243,179.313z M191.596,179.96h-0.149
	c0.066-0.033,0.107-0.058,0.125-0.075c0.017-0.016,0.059-0.025,0.125-0.025L191.596,179.96z M196.724,178.367h-0.148l0.148-0.099
	V178.367z M201.752,175.081c-0.066,0-0.101,0.05-0.101,0.149c0,0.067,0.033,0.1,0.101,0.1c0.066,0,0.1-0.033,0.1-0.1
	C201.852,175.131,201.817,175.081,201.752,175.081z M202,175.878c0.065,0,0.1,0.05,0.1,0.149c0,0.067-0.033,0.099-0.1,0.099
	c-0.067,0-0.101-0.032-0.101-0.099C201.899,175.928,201.934,175.878,202,175.878z M204.539,183.545
	c-0.267,0.199-0.365,0.382-0.299,0.547h-0.548c0.033-0.066,0.017-0.116-0.049-0.149c-0.067-0.033-0.135-0.083-0.199-0.149
	l-0.25,0.149c-0.032,0.133-0.141,0.116-0.323-0.05s-0.291-0.232-0.322-0.199c-0.266-0.132-0.398-0.39-0.398-0.772
	c0-0.381,0-0.605,0-0.672c0-0.365,0.017-0.747,0.05-1.145c0.032-0.398,0.1-0.863,0.198-1.394c0-0.033,0.025-0.174,0.076-0.423
	c0.049-0.249,0.115-0.531,0.197-0.847c0.084-0.315,0.149-0.647,0.199-0.996c0.051-0.348,0.075-0.655,0.075-0.921
	c0-0.265,0.066-0.448,0.199-0.547c0.131-0.1,0.199-0.182,0.199-0.249l0.049-0.249l0.051-0.647c-0.034-0.166-0.051-0.332-0.051-0.498
	c-0.033-0.166-0.049-0.324-0.049-0.473c0-0.149,0-0.273,0-0.373c-0.068-0.464-0.043-0.888,0.074-1.27
	c0.115-0.381,0.174-0.705,0.174-0.971l-0.148-0.149l0.298-0.249c0-0.132-0.009-0.19-0.023-0.174
	c-0.018,0.017-0.059-0.008-0.125-0.075c0.166-0.1,0.248-0.331,0.248-0.697l-0.1-0.249c0.065,0,0.106-0.058,0.125-0.174
	c0.018-0.116,0.059-0.224,0.125-0.323h-0.15c0-1.195,0.033-2.182,0.1-2.962c0.066-0.779,0.144-1.443,0.226-1.991
	c0.082-0.547,0.166-1.045,0.25-1.494c0.082-0.448,0.123-0.954,0.123-1.518c0-0.265,0.084-0.448,0.25-0.548s0.248-0.215,0.248-0.348
	l-0.248,0.099c0-0.132,0.1-0.256,0.299-0.373c0.199-0.116,0.281-0.24,0.248-0.374l0.1,0.1c0.066-0.066,0.115-0.132,0.15-0.199
	c0.031-0.066,0.082-0.132,0.147-0.199c0.267,0,0.425,0.05,0.474,0.149c0.051,0.1,0.158,0.183,0.324,0.249h1.543l0.299,0.149
	l0.248-0.149l0.397,0.149l0.25-0.149c0.166,0.067,0.248,0.149,0.248,0.249s-0.041,0.199-0.125,0.299
	c-0.082,0.099-0.166,0.208-0.248,0.323c-0.084,0.117-0.125,0.224-0.125,0.324l0.15,0.149c0,0.299-0.01,0.465-0.025,0.498
	c-0.018,0.034-0.059,0.083-0.125,0.149c0,0.067,0.051,0.149,0.15,0.249c0,0.266-0.01,0.407-0.025,0.423
	c-0.018,0.017-0.059,0.058-0.125,0.125c0,0.067,0.051,0.149,0.15,0.249c-0.033,0.199-0.06,0.457-0.074,0.772
	c-0.018,0.315-0.092,0.506-0.225,0.572l0.147,0.1c0,0.133-0.049,0.266-0.147,0.398l0.299,0.149c0,0.067-0.066,0.167-0.199,0.298
	c-0.133,0.133-0.199,0.333-0.199,0.598l0.101,0.149c0.032,0.167,0.016,0.415-0.052,0.747c-0.065,0.332-0.141,0.681-0.223,1.045
	c-0.084,0.366-0.168,0.714-0.25,1.045c-0.082,0.332-0.125,0.581-0.125,0.747l0.15,0.149c-0.101,0.1,0.016,0.075,0.348-0.075
	c0.332-0.149,0.83-0.224,1.494-0.224c0.1,0,0.381-0.083,0.846-0.249s0.879-0.249,1.246-0.249c0.861,0,1.492,0.009,1.892,0.025
	c0.397,0.017,0.612,0.142,0.647,0.374c-0.135,0.232-0.242,0.457-0.324,0.672c-0.084,0.216-0.291,0.341-0.623,0.374l0.25,0.1
	c0.101,0.1,0.101,0.167,0,0.199c-0.1,0.034-0.231,0.067-0.397,0.1c-0.166,0.034-0.324,0.083-0.474,0.149
	c-0.149,0.067-0.225,0.149-0.225,0.249c0.066,0.133,0.033,0.241-0.1,0.324c-0.134,0.083-0.3,0.167-0.498,0.249
	c-0.199,0.083-0.381,0.149-0.547,0.199c-0.168,0.05-0.25,0.092-0.25,0.125c-0.101,0-0.175-0.008-0.224-0.025
	c-0.051-0.016-0.108-0.041-0.176-0.075c-0.199,0-0.473,0.025-0.82,0.075c-0.35,0.05-0.696,0.108-1.047,0.174
	c-0.348,0.067-0.646,0.142-0.895,0.224c-0.25,0.083-0.392,0.142-0.425,0.174c0,0.133,0.009,0.191,0.025,0.174
	c0.016-0.017,0.057,0.008,0.123,0.075c-0.066,0.298-0.123,0.54-0.174,0.722c-0.049,0.183-0.101,0.349-0.148,0.498
	c-0.051,0.149-0.108,0.299-0.174,0.448c-0.067,0.149-0.168,0.341-0.299,0.573l0.148,0.149l-0.101,0.1
	c-0.033,0.034-0.049,0.083-0.049,0.149c0,0.266-0.143,0.448-0.424,0.548c-0.283,0.1-0.439,0.282-0.474,0.547
	c0.033,0.1,0.091,0.133,0.175,0.1c0.082-0.033,0.141,0.017,0.174,0.149l0.299-0.149c0.066-0.033,0.1-0.025,0.1,0.025
	c0,0.05,0,0.125,0,0.224c0,0.099,0.009,0.208,0.025,0.324c0.016,0.117,0.057,0.191,0.125,0.224c-0.168,0.1-0.299,0.233-0.398,0.398
	l0.148,0.149c0.033,0.332,0.008,0.522-0.074,0.572c-0.084,0.05-0.158,0.158-0.225,0.324c0.133,0,0.217,0.083,0.25,0.249
	c0.03,0.167,0.082,0.266,0.147,0.299l-0.498,0.249c0.134,0.167,0.232,0.308,0.3,0.423c0.065,0.117,0.133,0.208,0.198,0.274
	c0,0.067-0.033,0.199-0.1,0.398v0.1l0.498-0.498c-0.066,0.299-0.199,0.515-0.398,0.647h0.299l-0.397,0.797
	c0.065,0.067,0.15,0.124,0.25,0.174c0.1,0.05,0.147,0.158,0.147,0.324l-0.147,0.398h0.147c0.033,0.133-0.049,0.273-0.247,0.423
	c-0.199,0.15-0.25,0.241-0.15,0.274h0.1v0.1c0.101-0.1,0.107-0.1,0.025,0c-0.084,0.1-0.191,0.224-0.324,0.374
	s-0.272,0.298-0.422,0.448c-0.15,0.149-0.258,0.191-0.324,0.125v-0.249c-0.033,0.067-0.092,0.108-0.174,0.125
	c-0.084,0.017-0.158,0.059-0.225,0.125c-0.066-0.066-0.107-0.132-0.125-0.199c-0.017-0.066-0.06-0.132-0.123-0.199
	c-0.101,0.099-0.177,0.166-0.226,0.199c-0.051,0.034-0.158,0.05-0.323,0.05l-0.101-0.1l-0.397,0.249c0-0.066,0-0.141,0-0.224
	s0.084-0.19,0.25-0.323L204.539,183.545z M203.594,174.285c-0.066,0-0.1,0.05-0.1,0.149c0,0.067,0.032,0.1,0.1,0.1
	s0.1-0.033,0.1-0.1C203.692,174.335,203.66,174.285,203.594,174.285z M206.133,184.889h-0.15c0.199-0.199,0.332-0.299,0.398-0.299
	L206.133,184.889z M206.778,176.924c0-0.033-0.032-0.05-0.1-0.05c-0.033,0-0.049,0.017-0.049,0.05v0.1h0.049
	C206.746,177.023,206.778,176.991,206.778,176.924z M207.028,176.078c0.066,0,0.101,0.049,0.101,0.149c0,0.067-0.033,0.1-0.101,0.1
	c-0.066,0-0.1-0.033-0.1-0.1C206.93,176.127,206.963,176.078,207.028,176.078z M207.428,179.711c0.066,0,0.1,0.05,0.1,0.149
	c0,0.067-0.032,0.1-0.1,0.1c-0.068,0-0.1-0.033-0.1-0.1C207.328,179.761,207.358,179.711,207.428,179.711z M212.604,171.796
	c0.031,0,0.049,0.05,0.049,0.149c0,0.067-0.018,0.1-0.049,0.1c-0.067,0-0.1-0.033-0.1-0.1
	C212.506,171.846,212.537,171.796,212.604,171.796z M212.854,171.646c0,0.067-0.033,0.1-0.1,0.1h-0.051v-0.1l0.051-0.099
	C212.819,171.547,212.854,171.581,212.854,171.646z"/>
<path fill="#0F489C" d="M214.444,178.566c0-0.398,0-0.812,0-1.245c0-0.431,0.018-0.829,0.051-1.195
	c0.032-0.365,0.058-0.672,0.074-0.921s0.059-0.39,0.124-0.423c0.033-0.033,0.133-0.107,0.3-0.224
	c0.166-0.116,0.349-0.232,0.548-0.349c0.199-0.116,0.39-0.232,0.571-0.349c0.183-0.116,0.29-0.19,0.323-0.224l0.101-0.1
	c0.065,0,0.198-0.066,0.397-0.199c0.199-0.132,0.331-0.199,0.398-0.199c0.065,0.034,0.141,0,0.224-0.1s0.183-0.207,0.299-0.323
	c0.116-0.116,0.232-0.232,0.35-0.349c0.115-0.116,0.224-0.174,0.322-0.174c0.134,0,0.433-0.132,0.896-0.398
	c0.464-0.265,0.829-0.53,1.095-0.796c0-0.132,0.033-0.257,0.101-0.374c0.065-0.116,0.115-0.207,0.148-0.273
	c0-0.166-0.042-0.34-0.124-0.523c-0.083-0.182-0.125-0.356-0.125-0.522l0.149-0.149c0-0.066,0.042-0.291,0.125-0.672
	c0.082-0.381,0.166-0.812,0.249-1.294c0.082-0.48,0.165-0.954,0.249-1.418c0.082-0.464,0.124-0.829,0.124-1.095
	c0-0.033-0.018-0.042-0.051-0.025c-0.032,0.017-0.115,0.058-0.249,0.125c-0.133,0.067-0.341,0.167-0.621,0.298
	c-0.282,0.133-0.673,0.299-1.171,0.498c-0.065,0-0.266,0.117-0.598,0.349s-0.531,0.348-0.597,0.348
	c-0.466,0.167-0.78,0.291-0.946,0.374s-0.332,0.125-0.498,0.125c-0.133,0.1-0.307,0.033-0.521-0.199
	c-0.218-0.232-0.424-0.381-0.622-0.448c0.031,0-0.025-0.025-0.176-0.075c-0.149-0.05-0.307-0.124-0.473-0.224
	s-0.323-0.241-0.473-0.423c-0.149-0.182-0.226-0.423-0.226-0.722v-0.548l0.35-0.149c0.166-0.066,0.299-0.157,0.397-0.273
	c0.1-0.116,0.281-0.157,0.548-0.125c0,0.1,0.074,0.117,0.225,0.05c0.148-0.066,0.349-0.157,0.598-0.274
	c0.249-0.116,0.522-0.232,0.821-0.349c0.299-0.116,0.58-0.174,0.847-0.174c0.266,0,0.556-0.083,0.871-0.249
	c0.314-0.166,0.522-0.216,0.622-0.149c0.066,0,0.199-0.066,0.398-0.199c0.198-0.132,0.363-0.199,0.498-0.199
	c0.164,0.067,0.306,0.034,0.423-0.1c0.115-0.132,0.249-0.274,0.397-0.423c0.149-0.149,0.35-0.298,0.598-0.448
	c0.249-0.149,0.623-0.224,1.119-0.224c0.433-0.066,0.938,0.009,1.52,0.224c0.58,0.216,1.17,0.407,1.768,0.572
	c0.166,0.034,0.35,0.142,0.548,0.324c0.199,0.183,0.331,0.241,0.398,0.174c-0.034,0.266-0.075,0.522-0.125,0.771
	s-0.108,0.473-0.174,0.672h0.396c0,0.232-0.023,0.398-0.073,0.498c-0.051,0.1-0.108,0.183-0.175,0.249
	c-0.066,0.067-0.125,0.149-0.175,0.249s-0.074,0.266-0.074,0.498c0.165-0.1,0.266-0.132,0.3-0.1
	c0.031,0.034,0.023,0.092-0.025,0.174c-0.05,0.083-0.142,0.174-0.273,0.274c-0.134,0.1-0.267,0.149-0.397,0.149l0.1,0.149
	c0,0.1-0.009,0.174-0.024,0.224c-0.018,0.049-0.042,0.108-0.074,0.174c0.199,0.133,0.249,0.283,0.149,0.448
	c-0.101,0.167-0.149,0.332-0.149,0.498v0.099h0.249c0,0.1,0.016,0.199,0.05,0.299c0.065,0.199,0.101,0.366,0.101,0.498
	c0,0.167-0.025,0.274-0.075,0.323c-0.05,0.05-0.107,0.1-0.174,0.149c-0.067,0.05-0.134,0.1-0.199,0.149
	c-0.067,0.05-0.101,0.158-0.101,0.324c0.066,0.067,0.199,0.1,0.398,0.1c0,0.067-0.042,0.183-0.125,0.349s-0.124,0.282-0.124,0.348
	c-0.167,0.266-0.258,0.473-0.273,0.623c-0.018,0.149-0.024,0.208-0.024,0.174c0.032-0.066,0.106-0.132,0.224-0.199
	c0.116-0.066,0.226-0.132,0.324-0.199c0,0.067-0.05,0.149-0.149,0.249c0,0.1-0.059,0.241-0.175,0.423
	c-0.116,0.183-0.142,0.307-0.074,0.374h0.149c0,0.465-0.125,0.78-0.373,0.946c-0.249,0.167-0.49,0.382-0.723,0.647l0.148,0.1
	c-0.166,0.199-0.291,0.382-0.373,0.548c-0.083,0.167-0.224,0.349-0.423,0.547c-0.167,0.167-0.282,0.316-0.349,0.448
	c-0.067,0.133-0.143,0.232-0.226,0.299s-0.207,0.117-0.373,0.149c-0.166,0.033-0.415,0.033-0.746,0
	c-0.134-0.033-0.323,0.017-0.572,0.149c-0.249,0.133-0.516,0.274-0.796,0.423c-0.283,0.149-0.573,0.291-0.872,0.423
	c-0.298,0.133-0.564,0.199-0.796,0.199c0.031-0.033-0.042-0.008-0.226,0.074c-0.183,0.083-0.396,0.208-0.646,0.374
	c-0.249,0.167-0.475,0.332-0.673,0.498c-0.198,0.167-0.315,0.298-0.349,0.398c0,0.266,0.008,0.44,0.024,0.523
	s0.008,0.174-0.024,0.274c0.065,0.033,0.174,0.042,0.323,0.025c0.149-0.017,0.307-0.025,0.473-0.025
	c0.797-0.232,1.46-0.398,1.991-0.498s0.987-0.166,1.369-0.199c0.382-0.033,0.697-0.041,0.946-0.025
	c0.249,0.017,0.488,0.025,0.722,0.025c0.032,0,0.116,0.034,0.249,0.1c0.132,0.067,0.273,0.142,0.423,0.224
	c0.149,0.083,0.274,0.158,0.374,0.224c0.099,0.067,0.148,0.117,0.148,0.149c0,0.167-0.093,0.34-0.273,0.522
	c-0.183,0.183-0.356,0.357-0.521,0.523c-0.896,0.167-1.52,0.34-1.867,0.522c-0.35,0.183-0.664,0.357-0.945,0.523
	c-0.283,0.167-0.656,0.299-1.12,0.397c-0.466,0.1-1.262,0.149-2.39,0.149c-0.366,0-0.641,0.025-0.821,0.075
	c-0.184,0.05-0.356,0.083-0.522,0.1s-0.342,0-0.522-0.05c-0.183-0.05-0.44-0.19-0.771-0.423c0-0.266-0.134-0.523-0.398-0.772
	S214.444,179.098,214.444,178.566z M226.045,171.298c-0.066,0-0.101,0.05-0.101,0.149c0,0.067,0.033,0.1,0.101,0.1
	c0.066,0,0.1-0.033,0.1-0.1C226.145,171.348,226.11,171.298,226.045,171.298z M230.275,183.047
	c-0.266,0.199-0.364,0.382-0.299,0.548h-0.547c0.032-0.066,0.016-0.116-0.05-0.149c-0.067-0.033-0.134-0.083-0.199-0.149
	l-0.249,0.149c-0.034,0.133-0.142,0.117-0.324-0.05c-0.183-0.166-0.291-0.232-0.322-0.199c-0.267-0.132-0.398-0.39-0.398-0.771
	c0-0.381,0-0.605,0-0.672c0-0.365,0.017-0.747,0.05-1.145c0.033-0.398,0.101-0.862,0.199-1.394c0-0.033,0.025-0.174,0.075-0.423
	s0.115-0.53,0.198-0.846c0.083-0.315,0.148-0.646,0.198-0.996c0.051-0.349,0.075-0.655,0.075-0.921c0-0.266,0.066-0.448,0.199-0.548
	c0.132-0.1,0.199-0.182,0.199-0.249l0.05-0.249l0.05-0.647c-0.034-0.166-0.05-0.332-0.05-0.498c-0.034-0.166-0.05-0.324-0.05-0.473
	s0-0.274,0-0.374c-0.067-0.464-0.042-0.887,0.073-1.27c0.116-0.381,0.176-0.705,0.176-0.971l-0.149-0.149l0.298-0.249
	c0-0.132-0.008-0.191-0.023-0.174c-0.019,0.017-0.06-0.008-0.124-0.075c0.165-0.1,0.248-0.332,0.248-0.697l-0.101-0.249
	c0.066,0,0.107-0.058,0.125-0.174c0.018-0.116,0.059-0.224,0.124-0.324h-0.148c0-1.195,0.032-2.182,0.1-2.962
	c0.066-0.779,0.142-1.444,0.225-1.991c0.082-0.548,0.165-1.046,0.249-1.494c0.082-0.448,0.124-0.954,0.124-1.519
	c0-0.265,0.083-0.448,0.249-0.547s0.249-0.216,0.249-0.349l-0.249,0.1c0-0.132,0.101-0.257,0.3-0.374
	c0.198-0.116,0.28-0.24,0.249-0.373l0.1,0.1c0.064-0.066,0.115-0.132,0.149-0.199c0.031-0.066,0.081-0.132,0.148-0.199
	c0.265,0,0.423,0.05,0.473,0.149c0.051,0.099,0.157,0.183,0.323,0.249h1.544l0.298,0.149l0.249-0.149l0.398,0.149l0.249-0.149
	c0.166,0.067,0.249,0.149,0.249,0.249s-0.042,0.199-0.125,0.299c-0.083,0.1-0.166,0.208-0.248,0.324
	c-0.084,0.117-0.125,0.224-0.125,0.323l0.148,0.149c0,0.299-0.009,0.465-0.023,0.498c-0.019,0.033-0.06,0.083-0.125,0.149
	c0,0.067,0.05,0.149,0.148,0.249c0,0.266-0.009,0.407-0.023,0.423c-0.019,0.017-0.06,0.059-0.125,0.125
	c0,0.067,0.05,0.149,0.148,0.249c-0.032,0.199-0.059,0.457-0.073,0.771c-0.019,0.316-0.092,0.506-0.226,0.573l0.149,0.1
	c0,0.133-0.05,0.266-0.149,0.398l0.299,0.149c0,0.067-0.065,0.167-0.198,0.299c-0.133,0.133-0.199,0.332-0.199,0.597l0.1,0.149
	c0.033,0.167,0.018,0.416-0.05,0.747c-0.065,0.333-0.142,0.681-0.224,1.045c-0.083,0.366-0.167,0.714-0.249,1.046
	c-0.083,0.332-0.125,0.581-0.125,0.747l0.148,0.149c-0.1,0.1,0.018,0.075,0.35-0.075c0.332-0.15,0.829-0.224,1.494-0.224
	c0.1,0,0.381-0.083,0.846-0.249s0.879-0.249,1.245-0.249c0.861,0,1.493,0.009,1.892,0.025c0.398,0.018,0.613,0.142,0.647,0.374
	c-0.135,0.232-0.241,0.457-0.324,0.672s-0.291,0.34-0.622,0.373l0.249,0.1c0.1,0.1,0.1,0.167,0,0.199
	c-0.1,0.033-0.232,0.067-0.398,0.1s-0.322,0.083-0.473,0.149c-0.149,0.067-0.225,0.149-0.225,0.249
	c0.065,0.133,0.032,0.241-0.101,0.324s-0.298,0.167-0.497,0.249c-0.198,0.083-0.382,0.149-0.548,0.199
	c-0.167,0.05-0.249,0.092-0.249,0.125c-0.1,0-0.174-0.008-0.224-0.025s-0.108-0.042-0.175-0.075c-0.199,0-0.474,0.025-0.821,0.075
	c-0.348,0.05-0.697,0.108-1.046,0.174c-0.349,0.067-0.646,0.141-0.896,0.224c-0.249,0.083-0.391,0.142-0.423,0.174
	c0,0.133,0.008,0.191,0.024,0.174c0.017-0.016,0.058,0.009,0.124,0.075c-0.066,0.299-0.124,0.54-0.174,0.722
	c-0.051,0.183-0.101,0.349-0.149,0.498s-0.108,0.299-0.174,0.448c-0.067,0.149-0.167,0.341-0.299,0.573l0.148,0.149l-0.1,0.1
	c-0.033,0.033-0.05,0.083-0.05,0.149c0,0.266-0.143,0.448-0.424,0.547c-0.282,0.1-0.439,0.282-0.474,0.548
	c0.033,0.1,0.091,0.133,0.175,0.1c0.082-0.033,0.142,0.017,0.174,0.149l0.3-0.149c0.065-0.033,0.1-0.025,0.1,0.025
	c0,0.049,0,0.124,0,0.224c0,0.1,0.008,0.208,0.024,0.324c0.017,0.117,0.058,0.191,0.125,0.224c-0.167,0.1-0.3,0.232-0.398,0.398
	l0.149,0.149c0.031,0.333,0.008,0.523-0.075,0.573c-0.083,0.05-0.157,0.158-0.225,0.324c0.133,0,0.217,0.083,0.249,0.249
	c0.032,0.167,0.082,0.266,0.149,0.299l-0.498,0.249c0.133,0.167,0.231,0.307,0.299,0.423c0.066,0.117,0.132,0.208,0.199,0.274
	c0,0.067-0.033,0.199-0.1,0.398v0.1l0.498-0.498c-0.067,0.299-0.199,0.515-0.398,0.647h0.299l-0.397,0.796
	c0.065,0.067,0.148,0.125,0.249,0.174c0.1,0.049,0.148,0.158,0.148,0.324l-0.148,0.398h0.148c0.032,0.133-0.05,0.274-0.249,0.423
	c-0.199,0.149-0.249,0.241-0.148,0.274h0.1v0.099c0.1-0.099,0.107-0.099,0.024,0c-0.083,0.1-0.191,0.224-0.323,0.374
	c-0.133,0.149-0.273,0.299-0.423,0.448c-0.15,0.149-0.259,0.191-0.324,0.125v-0.249c-0.033,0.067-0.092,0.108-0.174,0.125
	c-0.083,0.017-0.158,0.058-0.225,0.125c-0.066-0.066-0.107-0.132-0.125-0.199c-0.017-0.066-0.059-0.132-0.124-0.199
	c-0.1,0.1-0.175,0.167-0.225,0.199c-0.05,0.033-0.157,0.05-0.323,0.05l-0.1-0.1l-0.398,0.249c0-0.066,0-0.141,0-0.224
	s0.083-0.191,0.249-0.324L230.275,183.047z M229.331,173.788c-0.067,0-0.101,0.05-0.101,0.149c0,0.067,0.032,0.1,0.101,0.1
	c0.064,0,0.1-0.033,0.1-0.1C229.431,173.837,229.396,173.788,229.331,173.788z M231.869,184.391h-0.149
	c0.199-0.199,0.332-0.299,0.398-0.299L231.869,184.391z M232.517,176.426c0-0.033-0.033-0.05-0.1-0.05
	c-0.033,0-0.05,0.017-0.05,0.05v0.1h0.05C232.482,176.525,232.517,176.493,232.517,176.426z M232.766,175.58
	c0.066,0,0.101,0.05,0.101,0.149c0,0.067-0.033,0.1-0.101,0.1c-0.066,0-0.1-0.033-0.1-0.1
	C232.666,175.629,232.699,175.58,232.766,175.58z M233.164,179.214c0.065,0,0.1,0.05,0.1,0.149c0,0.067-0.033,0.1-0.1,0.1
	c-0.067,0-0.101-0.033-0.101-0.1C233.063,179.264,233.097,179.214,233.164,179.214z M238.342,171.298c0.032,0,0.05,0.05,0.05,0.149
	c0,0.067-0.018,0.1-0.05,0.1c-0.067,0-0.1-0.033-0.1-0.1C238.242,171.348,238.273,171.298,238.342,171.298z M238.59,171.149
	c0,0.067-0.033,0.1-0.101,0.1h-0.05v-0.1l0.05-0.1C238.557,171.049,238.59,171.082,238.59,171.149z"/>
<path fill="#0F489C" d="M11.994,164.308l-2.341,8.544H7.938l-1.38-4.212l-1.38,4.212H3.474l-2.352-8.544h2.195l1.116,4.512
	l1.38-4.512h1.488l1.38,4.512l1.116-4.512H11.994z"/>
<path fill="#0F489C" d="M18.366,172.852h-5.809v-8.544h5.809v1.872h-3.708v1.428h3.168v1.872h-3.168v1.5h3.708V172.852z"/>
<path fill="#0F489C" d="M25.938,170.332c0,0.8-0.246,1.42-0.737,1.86c-0.492,0.44-1.135,0.66-1.927,0.66h-3.72v-8.544h3.54
	c0.872,0,1.544,0.224,2.016,0.672c0.473,0.448,0.708,1.048,0.708,1.8c0,0.424-0.12,0.804-0.359,1.14
	c-0.145,0.208-0.336,0.392-0.576,0.552c0.304,0.184,0.523,0.368,0.66,0.552C25.806,169.368,25.938,169.804,25.938,170.332z
	 M23.718,166.888c0-0.192-0.052-0.348-0.156-0.468c-0.136-0.152-0.336-0.228-0.6-0.228h-1.309v1.392h1.309
	c0.264,0,0.456-0.068,0.576-0.204C23.658,167.244,23.718,167.08,23.718,166.888z M23.838,170.212c0-0.2-0.056-0.368-0.168-0.504
	c-0.136-0.16-0.336-0.24-0.601-0.24h-1.416v1.5h1.416c0.265,0,0.458-0.074,0.582-0.222S23.838,170.42,23.838,170.212z"/>
<path fill="#0F489C" d="M32.381,172.852h-5.796v-1.632l3.275-5.04h-3.132v-1.872h5.652v1.632l-3.288,5.04h3.288V172.852z"/>
<path fill="#0F489C" d="M35.405,172.852h-2.1v-8.544h2.1V172.852z"/>
<path fill="#0F489C" d="M43.506,172.852H41.67l-2.736-4.296v4.296h-2.1v-8.544h1.836l2.735,4.296v-4.296h2.101V172.852z"/>
<path fill="#0F489C" d="M50.741,172.852h-5.809v-8.544h5.809v1.872h-3.708v1.428h3.168v1.872h-3.168v1.5h3.708V172.852z"/>
<path fill="#0F489C" d="M27.326,185.42l-1.423-0.662c-0.066-0.031-6.794-3.118-14.589-3.118h-1v-5.879h2v3.894
	c5.729,0.174,10.677,1.796,13.013,2.698v-6.313h2L27.326,185.42L27.326,185.42z"/>
<path fill="#0F489C" d="M27.326,162.414h-2v-6.107c-6.153-2.979-11.104-3.121-13.013-3.036v9.025h-2v-10.804l0.85-0.129
	c0.275-0.042,6.884-0.986,15.613,3.432l0.549,0.277L27.326,162.414L27.326,162.414z"/>
<path fill="#0F489C" d="M26.751,184.755l-0.857-1.807c0.273-0.13,6.518-3.052,14.189-3.293v-3.895h2v5.879h-1
	C33.405,181.64,26.816,184.724,26.751,184.755z"/>
<path fill="#0F489C" d="M42.595,162.296h-2v-9.022c-1.963-0.079-7.182,0.077-13.56,3.305l-0.903-1.784
	c8.729-4.418,15.337-3.475,15.614-3.432l0.849,0.129V162.296z"/>
<path fill="#0F489C" d="M46.625,162.415h-2v-4.563h-2.812v-2h2.812c1.103,0,2,0.897,2,2V162.415z"/>
<path fill="#0F489C" d="M26.25,189.668c-1.705,0-3.28-0.891-4.175-2.316H7.999c-1.104,0-2-0.897-2-2v-9.312h2v9.312h15.314
	l0.267,0.587c0.477,1.051,1.523,1.729,2.669,1.729c1.145,0,2.192-0.679,2.669-1.729l0.266-0.587h15.439v-9.312h2v9.312
	c0,1.103-0.897,2-2,2h-14.2C29.529,188.777,27.955,189.668,26.25,189.668z"/>
<path fill="#0F489C" d="M7.999,162.415h-2v-4.563c0-1.103,0.896-2,2-2h3.314v2H7.999V162.415z"/>
<path fill="#999999" d="M215.567,99.414c0,3.222,2.608,5.831,5.83,5.831c3.223,0,5.831-2.609,5.831-5.831
	c0-3.221-2.608-5.831-5.831-5.831C218.176,93.583,215.567,96.192,215.567,99.414z M216.783,99.414c0-0.374,0.043-0.738,0.128-1.085
	l1.086,1.085l-0.242,1.458l0.971,0.972v1.334C217.551,102.341,216.783,100.966,216.783,99.414z M220.337,94.922
	c0.34-0.083,0.695-0.124,1.062-0.124c0.406,0,0.801,0.054,1.174,0.151l-0.201,0.335l0.242,0.243h0.729l0.201-0.201
	c0.17,0.09,0.33,0.187,0.484,0.296l-0.443,0.148l-0.486,0.486l0.486,0.243v0.243h-0.486v0.485c0,0,0.336,0.243,0.729,0.243
	c0.387,0,0.214-0.532,0.485-0.729c0.274-0.197,0.606-0.153,0.606-0.153l0.159,0.041c0.296,0.392,0.53,0.829,0.69,1.302v0.024
	c0,0-0.342-0.243-0.972-0.243c-0.629,0-1.215,0.243-1.215,0.243s-0.686,0.2-0.729,0.729c-0.075,0.911,0.242,1.215,0.242,1.215
	l1.216,0.729v2.364c-0.794,0.648-1.811,1.037-2.916,1.037c-0.521,0-1.021-0.085-1.492-0.245l1.25-2.913l-0.243-1.215
	c0,0-0.965-1.215-1.457-1.215s-0.729,0.729-0.729,0.729l-0.485-0.972l1.458-0.972l0.729-1.943L220.337,94.922z"/>
</svg>
